<svg width="98" height="19" viewBox="0 0 98 19" fill="none" xmlns="http://www.w3.org/2000/svg">
<path d="M0.401998 5.23622C0.303262 5.07949 0.211578 4.86577 0.126947 4.59505C0.0423156 4.32433 0 4.03937 0 3.74016C0 3.18448 0.119894 2.78553 0.359683 2.54331C0.613576 2.30109 0.937996 2.17998 1.33294 2.17998H10.5577C10.6565 2.33671 10.7482 2.55043 10.8328 2.82115C10.9174 3.09186 10.9597 3.37683 10.9597 3.67604C10.9597 4.23172 10.8328 4.63067 10.5789 4.87289C10.3391 5.11511 10.0217 5.23622 9.6268 5.23622H7.27829V15.1102C7.12313 15.153 6.87629 15.1957 6.53776 15.2385C6.21334 15.2812 5.88892 15.3026 5.5645 15.3026C5.24008 15.3026 4.95093 15.2741 4.69703 15.2171C4.45724 15.1744 4.25272 15.0889 4.08346 14.9606C3.91419 14.8324 3.78725 14.6543 3.70262 14.4263C3.61799 14.1983 3.57567 13.8991 3.57567 13.5287V5.23622H0.401998Z" fill="white"/>
<path d="M15.2257 15.1744C15.0846 15.2171 14.859 15.2598 14.5486 15.3026C14.2524 15.3453 13.9421 15.3667 13.6177 15.3667C13.3074 15.3667 13.0253 15.3453 12.7714 15.3026C12.5316 15.2598 12.3271 15.1744 12.1578 15.0461C11.9885 14.9179 11.8545 14.7469 11.7558 14.5332C11.6712 14.3052 11.6289 14.0131 11.6289 13.6569V7.24522C11.6289 6.91751 11.6853 6.63967 11.7981 6.4117C11.9251 6.16948 12.1014 5.95576 12.3271 5.77053C12.5528 5.5853 12.8278 5.42145 13.1522 5.27896C13.4907 5.12223 13.8504 4.98688 14.2313 4.87289C14.6121 4.75891 15.0071 4.67342 15.4161 4.61642C15.8252 4.54518 16.2342 4.50956 16.6433 4.50956C17.3203 4.50956 17.8563 4.64492 18.2513 4.91564C18.6462 5.1721 18.8437 5.59955 18.8437 6.19797C18.8437 6.39745 18.8155 6.59693 18.759 6.7964C18.7026 6.98163 18.6321 7.15261 18.5475 7.30934C18.2513 7.30934 17.948 7.32358 17.6377 7.35208C17.3274 7.38058 17.0241 7.42332 16.7279 7.48031C16.4317 7.53731 16.1496 7.60142 15.8816 7.67267C15.6277 7.72966 15.4091 7.8009 15.2257 7.88639V15.1744Z" fill="white"/>
<path d="M20.2429 1.92351C20.2429 1.38208 20.4192 0.926134 20.7718 0.55568C21.1386 0.185227 21.6182 0 22.2106 0C22.803 0 23.2755 0.185227 23.6281 0.55568C23.9949 0.926134 24.1783 1.38208 24.1783 1.92351C24.1783 2.46494 23.9949 2.92089 23.6281 3.29134C23.2755 3.66179 22.803 3.84702 22.2106 3.84702C21.6182 3.84702 21.1386 3.66179 20.7718 3.29134C20.4192 2.92089 20.2429 2.46494 20.2429 1.92351ZM24.009 15.1744C23.8538 15.2029 23.6211 15.2385 23.3108 15.2812C23.0146 15.3382 22.7113 15.3667 22.401 15.3667C22.0907 15.3667 21.8086 15.3453 21.5547 15.3026C21.3149 15.2598 21.1104 15.1744 20.9411 15.0461C20.7718 14.9179 20.6378 14.7469 20.5391 14.5332C20.4545 14.3052 20.4122 14.0131 20.4122 13.6569V4.95838C20.5673 4.92988 20.793 4.89426 21.0892 4.85152C21.3995 4.79453 21.7098 4.76603 22.0202 4.76603C22.3305 4.76603 22.6055 4.7874 22.8453 4.83015C23.0992 4.87289 23.3108 4.95838 23.48 5.08661C23.6493 5.21485 23.7763 5.39295 23.8609 5.62092C23.9596 5.83465 24.009 6.11961 24.009 6.47582V15.1744Z" fill="white"/>
<path d="M31.017 4.48819C31.8633 4.48819 32.6462 4.60217 33.3655 4.83015C34.099 5.04387 34.7267 5.3787 35.2486 5.83465C35.7705 6.29059 36.1795 6.86764 36.4757 7.5658C36.7719 8.24972 36.92 9.06899 36.92 10.0236C36.92 10.9355 36.7931 11.7334 36.5392 12.4173C36.2853 13.1012 35.9256 13.6783 35.4602 14.1485C34.9947 14.6044 34.4305 14.9464 33.7675 15.1744C33.1187 15.4023 32.3923 15.5163 31.5883 15.5163C30.9818 15.5163 30.4175 15.4237 29.8957 15.2385V18.7863C29.7546 18.829 29.5289 18.8718 29.2186 18.9145C28.9083 18.9715 28.5909 19 28.2665 19C27.9562 19 27.6741 18.9786 27.4202 18.9359C27.1804 18.8931 26.9759 18.8076 26.8066 18.6794C26.6374 18.5512 26.5104 18.3731 26.4258 18.1451C26.3411 17.9314 26.2988 17.6464 26.2988 17.2902V7.0315C26.2988 6.64679 26.3764 6.33333 26.5316 6.09111C26.7008 5.84889 26.9265 5.62805 27.2086 5.42857C27.6459 5.14361 28.1889 4.91564 28.8378 4.74466C29.4866 4.57368 30.213 4.48819 31.017 4.48819ZM31.0593 12.6524C32.5122 12.6524 33.2386 11.7762 33.2386 10.0236C33.2386 9.11174 33.0552 8.43495 32.6885 7.99325C32.3359 7.55156 31.821 7.33071 31.144 7.33071C30.876 7.33071 30.6362 7.36633 30.4246 7.43757C30.213 7.49456 30.0297 7.5658 29.8745 7.65129V12.3532C30.0438 12.4387 30.2271 12.5099 30.4246 12.5669C30.6221 12.6239 30.8336 12.6524 31.0593 12.6524Z" fill="white"/>
<path d="M50.4179 15.1102C50.2627 15.153 50.0159 15.1957 49.6774 15.2385C49.353 15.2812 49.0285 15.3026 48.7041 15.3026C48.3797 15.3026 48.0905 15.2741 47.8366 15.2171C47.5969 15.1744 47.3923 15.0889 47.2231 14.9606C47.0538 14.8324 46.9269 14.6543 46.8422 14.4263C46.7576 14.1983 46.7153 13.8991 46.7153 13.5287V10.1946H42.653V15.1102C42.4978 15.153 42.251 15.1957 41.9125 15.2385C41.588 15.2812 41.2636 15.3026 40.9392 15.3026C40.6148 15.3026 40.3256 15.2741 40.0717 15.2171C39.8319 15.1744 39.6274 15.0889 39.4582 14.9606C39.2889 14.8324 39.1619 14.6543 39.0773 14.4263C38.9927 14.1983 38.9504 13.8991 38.9504 13.5287V2.24409C39.1055 2.2156 39.3524 2.17998 39.6909 2.13723C40.0294 2.08024 40.3538 2.05174 40.6642 2.05174C40.9886 2.05174 41.2707 2.08024 41.5105 2.13723C41.7644 2.17998 41.9759 2.26547 42.1452 2.3937C42.3145 2.52193 42.4414 2.70004 42.526 2.92801C42.6107 3.15598 42.653 3.45519 42.653 3.82565V7.24522H46.7153V2.24409C46.8704 2.2156 47.1173 2.17998 47.4558 2.13723C47.7943 2.08024 48.1188 2.05174 48.4291 2.05174C48.7535 2.05174 49.0356 2.08024 49.2754 2.13723C49.5293 2.17998 49.7408 2.26547 49.9101 2.3937C50.0794 2.52193 50.2063 2.70004 50.291 2.92801C50.3756 3.15598 50.4179 3.45519 50.4179 3.82565V15.1102Z" fill="white"/>
<path d="M63.5331 10.0022C63.5331 10.8856 63.3991 11.6764 63.1311 12.3746C62.8631 13.0585 62.4823 13.6355 61.9886 14.1057C61.509 14.5759 60.9307 14.9321 60.2536 15.1744C59.5766 15.4166 58.822 15.5377 57.9897 15.5377C57.1575 15.5377 56.4029 15.4094 55.7259 15.153C55.0488 14.8965 54.4635 14.5332 53.9698 14.063C53.4902 13.5786 53.1164 12.9944 52.8484 12.3105C52.5804 11.6265 52.4464 10.8571 52.4464 10.0022C52.4464 9.1616 52.5804 8.39933 52.8484 7.71541C53.1164 7.0315 53.4902 6.45444 53.9698 5.98425C54.4635 5.49981 55.0488 5.12936 55.7259 4.87289C56.4029 4.61642 57.1575 4.48819 57.9897 4.48819C58.822 4.48819 59.5766 4.62355 60.2536 4.89426C60.9307 5.15073 61.509 5.52118 61.9886 6.00562C62.4823 6.47582 62.8631 7.05287 63.1311 7.73678C63.3991 8.4207 63.5331 9.17585 63.5331 10.0022ZM56.1279 10.0022C56.1279 10.8714 56.2901 11.5411 56.6145 12.0112C56.953 12.4672 57.4185 12.6952 58.0109 12.6952C58.6033 12.6952 59.0547 12.4601 59.365 11.9899C59.6894 11.5197 59.8516 10.8571 59.8516 10.0022C59.8516 9.14736 59.6894 8.49194 59.365 8.036C59.0406 7.5658 58.5822 7.33071 57.9897 7.33071C57.3973 7.33071 56.9389 7.5658 56.6145 8.036C56.2901 8.49194 56.1279 9.14736 56.1279 10.0022Z" fill="white"/>
<path d="M65.2879 4.95838C65.4289 4.91564 65.6476 4.87289 65.9438 4.83015C66.2541 4.7874 66.5714 4.76603 66.8959 4.76603C67.2062 4.76603 67.4812 4.7874 67.721 4.83015C67.9749 4.87289 68.1865 4.95838 68.3558 5.08661C68.525 5.21485 68.652 5.39295 68.7366 5.62092C68.8353 5.83465 68.8847 6.11961 68.8847 6.47582V11.0709C68.8847 11.655 69.0258 12.0754 69.3079 12.3318C69.59 12.5741 69.999 12.6952 70.535 12.6952C70.8594 12.6952 71.1204 12.6667 71.3178 12.6097C71.5294 12.5527 71.6916 12.4957 71.8045 12.4387V4.95838C71.9455 4.91564 72.1642 4.87289 72.4604 4.83015C72.7707 4.7874 73.0881 4.76603 73.4125 4.76603C73.7228 4.76603 73.9978 4.7874 74.2376 4.83015C74.4915 4.87289 74.7031 4.95838 74.8724 5.08661C75.0416 5.21485 75.1686 5.39295 75.2532 5.62092C75.3519 5.83465 75.4013 6.11961 75.4013 6.47582V12.973C75.4013 13.6854 75.1051 14.2197 74.5127 14.5759C74.019 14.8894 73.4266 15.1245 72.7354 15.2812C72.0584 15.4522 71.3178 15.5377 70.5139 15.5377C69.7522 15.5377 69.0469 15.4522 68.3981 15.2812C67.7633 15.1102 67.2132 14.8466 66.7478 14.4904C66.2823 14.1342 65.9226 13.6783 65.6687 13.1226C65.4148 12.5527 65.2879 11.8688 65.2879 11.0709V4.95838Z" fill="white"/>
<path d="M86.2771 12.0967C86.2771 13.1796 85.8751 14.0274 85.0711 14.64C84.2671 15.2527 83.0822 15.5591 81.5166 15.5591C80.9241 15.5591 80.3741 15.5163 79.8663 15.4308C79.3585 15.3453 78.9212 15.2171 78.5545 15.0461C78.2019 14.8609 77.9197 14.6329 77.7082 14.3622C77.5107 14.0915 77.412 13.7709 77.412 13.4004C77.412 13.0585 77.4825 12.7735 77.6235 12.5456C77.7646 12.3033 77.9339 12.1039 78.1313 11.9471C78.5404 12.1751 79.0058 12.3817 79.5277 12.5669C80.0637 12.7379 80.6773 12.8234 81.3685 12.8234C81.8057 12.8234 82.1372 12.7593 82.3629 12.631C82.6027 12.5028 82.7226 12.3318 82.7226 12.1181C82.7226 11.9186 82.6379 11.7619 82.4687 11.6479C82.2994 11.5339 82.0173 11.4413 81.6224 11.3701L80.9876 11.2418C79.7605 10.9996 78.8436 10.622 78.2371 10.1091C77.6447 9.58193 77.3485 8.8339 77.3485 7.86502C77.3485 7.33783 77.4613 6.86052 77.687 6.43307C77.9127 6.00562 78.2301 5.64942 78.6391 5.36445C79.0482 5.07949 79.5348 4.85864 80.099 4.70191C80.6773 4.54518 81.312 4.46682 82.0032 4.46682C82.5251 4.46682 83.0117 4.50956 83.4631 4.59505C83.9286 4.66629 84.3306 4.78028 84.6691 4.93701C85.0076 5.09374 85.2756 5.30034 85.4731 5.55681C85.6706 5.79903 85.7693 6.09111 85.7693 6.43307C85.7693 6.76078 85.7058 7.04574 85.5789 7.28796C85.466 7.51594 85.3179 7.70829 85.1346 7.86502C85.0217 7.79378 84.8525 7.72253 84.6268 7.65129C84.4011 7.5658 84.1543 7.49456 83.8863 7.43757C83.6182 7.36633 83.3432 7.30934 83.0611 7.26659C82.7931 7.22385 82.5462 7.20247 82.3206 7.20247C81.8551 7.20247 81.4954 7.25947 81.2415 7.37345C80.9876 7.47319 80.8607 7.63705 80.8607 7.86502C80.8607 8.02175 80.9312 8.14998 81.0723 8.24972C81.2133 8.34946 81.4813 8.44207 81.8763 8.52756L82.5322 8.67717C83.8863 8.99063 84.8454 9.4252 85.4096 9.98088C85.9879 10.5223 86.2771 11.2276 86.2771 12.0967Z" fill="white"/>
<path d="M93.5569 15.5377C92.7246 15.5377 91.9489 15.4237 91.2295 15.1957C90.5242 14.9535 89.9036 14.5973 89.3676 14.1271C88.8457 13.6569 88.4296 13.0656 88.1193 12.3532C87.8231 11.6408 87.675 10.8073 87.675 9.85264C87.675 8.91226 87.8231 8.10724 88.1193 7.43757C88.4296 6.75366 88.8316 6.19798 89.3253 5.77053C89.819 5.32883 90.3832 5.00825 91.0179 4.80877C91.6526 4.59505 92.3015 4.48819 92.9644 4.48819C93.712 4.48819 94.3891 4.60217 94.9956 4.83015C95.6162 5.05812 96.1452 5.37158 96.5824 5.77053C97.0338 6.16948 97.3794 6.64679 97.6192 7.20247C97.873 7.75816 98 8.3637 98 9.01912C98 9.50356 97.866 9.87402 97.598 10.1305C97.33 10.387 96.9562 10.5508 96.4766 10.622L91.2506 11.4128C91.4058 11.883 91.7232 12.2392 92.2028 12.4814C92.6823 12.7094 93.2324 12.8234 93.8531 12.8234C94.4314 12.8234 94.9744 12.7522 95.4822 12.6097C96.0041 12.4529 96.4273 12.2748 96.7517 12.0754C96.9774 12.2178 97.1678 12.4173 97.3229 12.6738C97.4781 12.9303 97.5557 13.201 97.5557 13.4859C97.5557 14.1271 97.2595 14.6044 96.6671 14.9179C96.2157 15.1601 95.7079 15.324 95.1437 15.4094C94.5795 15.4949 94.0505 15.5377 93.5569 15.5377ZM92.9644 7.13836C92.6259 7.13836 92.3297 7.19535 92.0758 7.30934C91.836 7.42332 91.6385 7.57293 91.4834 7.75816C91.3282 7.92913 91.2083 8.12861 91.1237 8.35658C91.0532 8.5703 91.0109 8.79115 90.9968 9.01912L94.6147 8.4207C94.5724 8.13573 94.4173 7.85077 94.1493 7.5658C93.8813 7.28084 93.4863 7.13836 92.9644 7.13836Z" fill="white"/>
</svg>
