<svg width="58" height="58" viewBox="0 0 58 58" fill="none" xmlns="http://www.w3.org/2000/svg">
<rect width="58" height="58" rx="4" fill="#3077C6"/>
<path d="M2.58581 26.6094C2.53214 26.5215 2.48231 26.4017 2.43631 26.2499C2.39031 26.0981 2.36731 25.9383 2.36731 25.7706C2.36731 25.459 2.43247 25.2353 2.56281 25.0995C2.7008 24.9637 2.87713 24.8958 3.09179 24.8958H8.10569C8.15936 24.9837 8.20919 25.1035 8.25519 25.2553C8.30119 25.4071 8.32419 25.5669 8.32419 25.7346C8.32419 26.0462 8.25519 26.2699 8.11719 26.4057C7.98686 26.5415 7.81437 26.6094 7.5997 26.6094H6.32323V32.1456C6.2389 32.1696 6.10473 32.1936 5.92074 32.2175C5.74441 32.2415 5.56808 32.2535 5.39175 32.2535C5.21542 32.2535 5.05825 32.2375 4.92026 32.2056C4.78993 32.1816 4.67876 32.1337 4.58676 32.0618C4.49477 31.9899 4.42577 31.89 4.37977 31.7622C4.33377 31.6344 4.31077 31.4666 4.31077 31.2589V26.6094H2.58581Z" fill="white"/>
<path d="M10.6428 32.1816C10.5662 32.2056 10.4435 32.2295 10.2748 32.2535C10.1138 32.2775 9.94518 32.2894 9.76885 32.2894C9.60018 32.2894 9.44685 32.2775 9.30886 32.2535C9.17853 32.2295 9.06736 32.1816 8.97536 32.1097C8.88336 32.0378 8.81053 31.9419 8.75687 31.8221C8.71087 31.6943 8.68787 31.5305 8.68787 31.3308V27.7358C8.68787 27.5521 8.71853 27.3963 8.77987 27.2685C8.84887 27.1327 8.9447 27.0128 9.06736 26.909C9.19002 26.8051 9.33952 26.7133 9.51585 26.6334C9.69985 26.5455 9.89534 26.4696 10.1023 26.4057C10.3093 26.3418 10.524 26.2938 10.7463 26.2619C10.9687 26.2219 11.191 26.202 11.4133 26.202C11.7813 26.202 12.0726 26.2779 12.2873 26.4297C12.502 26.5735 12.6093 26.8131 12.6093 27.1486C12.6093 27.2605 12.594 27.3723 12.5633 27.4842C12.5326 27.588 12.4943 27.6839 12.4483 27.7718C12.2873 27.7718 12.1225 27.7798 11.9538 27.7957C11.7851 27.8117 11.6203 27.8357 11.4593 27.8676C11.2983 27.8996 11.145 27.9355 10.9993 27.9755C10.8613 28.0074 10.7425 28.0474 10.6428 28.0953V32.1816Z" fill="white"/>
<path d="M13.3698 24.752C13.3698 24.4484 13.4656 24.1928 13.6573 23.9851C13.8566 23.7774 14.1173 23.6735 14.4393 23.6735C14.7613 23.6735 15.0181 23.7774 15.2098 23.9851C15.4091 24.1928 15.5088 24.4484 15.5088 24.752C15.5088 25.0556 15.4091 25.3112 15.2098 25.5189C15.0181 25.7266 14.7613 25.8305 14.4393 25.8305C14.1173 25.8305 13.8566 25.7266 13.6573 25.5189C13.4656 25.3112 13.3698 25.0556 13.3698 24.752ZM15.4168 32.1816C15.3324 32.1976 15.2059 32.2175 15.0373 32.2415C14.8763 32.2735 14.7114 32.2894 14.5428 32.2894C14.3741 32.2894 14.2208 32.2775 14.0828 32.2535C13.9525 32.2295 13.8413 32.1816 13.7493 32.1097C13.6573 32.0378 13.5845 31.9419 13.5308 31.8221C13.4848 31.6943 13.4618 31.5305 13.4618 31.3308V26.4536C13.5461 26.4376 13.6688 26.4177 13.8298 26.3937C13.9985 26.3618 14.1671 26.3458 14.3358 26.3458C14.5044 26.3458 14.6539 26.3578 14.7843 26.3817C14.9223 26.4057 15.0373 26.4536 15.1293 26.5255C15.2213 26.5974 15.2903 26.6973 15.3363 26.8251C15.3899 26.9449 15.4168 27.1047 15.4168 27.3044V32.1816Z" fill="white"/>
<path d="M19.2258 26.19C19.6858 26.19 20.1113 26.2539 20.5023 26.3817C20.9009 26.5016 21.2421 26.6893 21.5257 26.9449C21.8094 27.2006 22.0317 27.5241 22.1927 27.9156C22.3537 28.299 22.4342 28.7584 22.4342 29.2936C22.4342 29.8049 22.3652 30.2523 22.2272 30.6358C22.0892 31.0192 21.8937 31.3428 21.6407 31.6064C21.3877 31.862 21.0811 32.0538 20.7208 32.1816C20.3681 32.3094 19.9733 32.3733 19.5363 32.3733C19.2066 32.3733 18.9 32.3214 18.6163 32.2175V34.2068C18.5396 34.2307 18.417 34.2547 18.2483 34.2787C18.0796 34.3106 17.9071 34.3266 17.7308 34.3266C17.5622 34.3266 17.4088 34.3146 17.2708 34.2906C17.1405 34.2667 17.0293 34.2187 16.9373 34.1468C16.8453 34.0749 16.7763 33.9751 16.7303 33.8473C16.6843 33.7274 16.6613 33.5676 16.6613 33.3679V27.616C16.6613 27.4003 16.7035 27.2245 16.7878 27.0887C16.8798 26.9529 17.0025 26.8291 17.1558 26.7173C17.3935 26.5575 17.6887 26.4297 18.0413 26.3338C18.394 26.2379 18.7888 26.19 19.2258 26.19ZM19.2488 30.7676C20.0384 30.7676 20.4333 30.2763 20.4333 29.2936C20.4333 28.7824 20.3336 28.4029 20.1343 28.1552C19.9426 27.9076 19.6628 27.7838 19.2948 27.7838C19.1491 27.7838 19.0188 27.8037 18.9038 27.8437C18.7888 27.8756 18.6891 27.9156 18.6048 27.9635V30.5998C18.6968 30.6477 18.7965 30.6877 18.9038 30.7196C19.0111 30.7516 19.1261 30.7676 19.2488 30.7676Z" fill="white"/>
<path d="M29.7706 32.1456C29.6863 32.1696 29.5521 32.1936 29.3681 32.2175C29.1918 32.2415 29.0155 32.2535 28.8391 32.2535C28.6628 32.2535 28.5056 32.2375 28.3677 32.2056C28.2373 32.1816 28.1262 32.1337 28.0342 32.0618C27.9422 31.9899 27.8732 31.89 27.8272 31.7622C27.7812 31.6344 27.7582 31.4666 27.7582 31.2589V29.3895H25.5502V32.1456C25.4659 32.1696 25.3317 32.1936 25.1477 32.2175C24.9714 32.2415 24.7951 32.2535 24.6187 32.2535C24.4424 32.2535 24.2852 32.2375 24.1472 32.2056C24.0169 32.1816 23.9057 32.1337 23.8137 32.0618C23.7217 31.9899 23.6527 31.89 23.6067 31.7622C23.5608 31.6344 23.5378 31.4666 23.5378 31.2589V24.9318C23.6221 24.9158 23.7562 24.8958 23.9402 24.8718C24.1242 24.8399 24.3006 24.8239 24.4692 24.8239C24.6456 24.8239 24.7989 24.8399 24.9292 24.8718C25.0672 24.8958 25.1822 24.9437 25.2742 25.0156C25.3662 25.0875 25.4352 25.1874 25.4812 25.3152C25.5272 25.443 25.5502 25.6108 25.5502 25.8185V27.7358H27.7582V24.9318C27.8425 24.9158 27.9767 24.8958 28.1607 24.8718C28.3447 24.8399 28.521 24.8239 28.6896 24.8239C28.866 24.8239 29.0193 24.8399 29.1496 24.8718C29.2876 24.8958 29.4026 24.9437 29.4946 25.0156C29.5866 25.0875 29.6556 25.1874 29.7016 25.3152C29.7476 25.443 29.7706 25.6108 29.7706 25.8185V32.1456Z" fill="white"/>
<path d="M36.899 29.2817C36.899 29.777 36.8262 30.2203 36.6805 30.6118C36.5349 30.9953 36.3279 31.3188 36.0596 31.5824C35.7989 31.8461 35.4846 32.0458 35.1166 32.1816C34.7486 32.3174 34.3384 32.3853 33.8861 32.3853C33.4338 32.3853 33.0236 32.3134 32.6556 32.1696C32.2876 32.0258 31.9695 31.8221 31.7011 31.5585C31.4405 31.2868 31.2373 30.9593 31.0917 30.5758C30.946 30.1924 30.8732 29.761 30.8732 29.2817C30.8732 28.8103 30.946 28.3829 31.0917 27.9995C31.2373 27.616 31.4405 27.2924 31.7011 27.0288C31.9695 26.7572 32.2876 26.5495 32.6556 26.4057C33.0236 26.2619 33.4338 26.19 33.8861 26.19C34.3384 26.19 34.7486 26.2659 35.1166 26.4177C35.4846 26.5615 35.7989 26.7692 36.0596 27.0408C36.3279 27.3044 36.5349 27.628 36.6805 28.0114C36.8262 28.3949 36.899 28.8183 36.899 29.2817ZM32.8741 29.2817C32.8741 29.769 32.9623 30.1444 33.1386 30.4081C33.3226 30.6637 33.5756 30.7915 33.8976 30.7915C34.2196 30.7915 34.4649 30.6597 34.6336 30.3961C34.8099 30.1325 34.8981 29.761 34.8981 29.2817C34.8981 28.8023 34.8099 28.4348 34.6336 28.1792C34.4573 27.9156 34.2081 27.7838 33.8861 27.7838C33.5641 27.7838 33.3149 27.9156 33.1386 28.1792C32.9623 28.4348 32.8741 28.8023 32.8741 29.2817Z" fill="white"/>
<path d="M37.8528 26.4536C37.9295 26.4297 38.0483 26.4057 38.2093 26.3817C38.378 26.3578 38.5505 26.3458 38.7268 26.3458C38.8954 26.3458 39.0449 26.3578 39.1753 26.3817C39.3133 26.4057 39.4283 26.4536 39.5203 26.5255C39.6123 26.5974 39.6813 26.6973 39.7273 26.8251C39.7809 26.9449 39.8078 27.1047 39.8078 27.3044V29.8808C39.8078 30.2084 39.8844 30.444 40.0378 30.5878C40.1911 30.7236 40.4134 30.7915 40.7047 30.7915C40.8811 30.7915 41.0229 30.7756 41.1302 30.7436C41.2452 30.7117 41.3334 30.6797 41.3947 30.6477V26.4536C41.4714 26.4297 41.5902 26.4057 41.7512 26.3817C41.9199 26.3578 42.0924 26.3458 42.2687 26.3458C42.4374 26.3458 42.5869 26.3578 42.7172 26.3817C42.8552 26.4057 42.9702 26.4536 43.0622 26.5255C43.1542 26.5974 43.2232 26.6973 43.2692 26.8251C43.3229 26.9449 43.3497 27.1047 43.3497 27.3044V30.9473C43.3497 31.3468 43.1887 31.6463 42.8667 31.8461C42.5984 32.0218 42.2764 32.1536 41.9007 32.2415C41.5327 32.3374 41.1302 32.3853 40.6932 32.3853C40.2793 32.3853 39.8959 32.3374 39.5433 32.2415C39.1983 32.1456 38.8993 31.9978 38.6463 31.7981C38.3933 31.5984 38.1978 31.3428 38.0598 31.0312C37.9218 30.7117 37.8528 30.3282 37.8528 29.8808V26.4536Z" fill="white"/>
<path d="M49.2609 30.456C49.2609 31.0632 49.0424 31.5385 48.6054 31.882C48.1684 32.2255 47.5245 32.3973 46.6735 32.3973C46.3515 32.3973 46.0525 32.3733 45.7765 32.3254C45.5005 32.2775 45.2628 32.2056 45.0635 32.1097C44.8719 32.0058 44.7185 31.878 44.6035 31.7262C44.4962 31.5744 44.4425 31.3947 44.4425 31.187C44.4425 30.9953 44.4809 30.8355 44.5575 30.7077C44.6342 30.5718 44.7262 30.46 44.8335 30.3721C45.0558 30.5 45.3088 30.6158 45.5925 30.7196C45.8838 30.8155 46.2173 30.8634 46.593 30.8634C46.8306 30.8634 47.0108 30.8275 47.1335 30.7556C47.2638 30.6837 47.329 30.5878 47.329 30.468C47.329 30.3562 47.283 30.2683 47.191 30.2044C47.099 30.1405 46.9456 30.0885 46.731 30.0486L46.386 29.9767C45.719 29.8409 45.2207 29.6292 44.891 29.3416C44.569 29.046 44.408 28.6266 44.408 28.0833C44.408 27.7878 44.4694 27.5201 44.592 27.2805C44.7147 27.0408 44.8872 26.8411 45.1095 26.6813C45.3318 26.5215 45.5963 26.3977 45.903 26.3098C46.2173 26.2219 46.5623 26.178 46.938 26.178C47.2216 26.178 47.4861 26.202 47.7315 26.2499C47.9845 26.2899 48.203 26.3538 48.3869 26.4416C48.5709 26.5295 48.7166 26.6454 48.8239 26.7892C48.9313 26.925 48.9849 27.0887 48.9849 27.2805C48.9849 27.4642 48.9504 27.624 48.8814 27.7598C48.8201 27.8876 48.7396 27.9955 48.6399 28.0833C48.5786 28.0434 48.4866 28.0035 48.3639 27.9635C48.2413 27.9156 48.1071 27.8756 47.9615 27.8437C47.8158 27.8037 47.6663 27.7718 47.513 27.7478C47.3673 27.7238 47.2331 27.7119 47.1105 27.7119C46.8575 27.7119 46.662 27.7438 46.524 27.8077C46.386 27.8636 46.317 27.9555 46.317 28.0833C46.317 28.1712 46.3553 28.2431 46.432 28.299C46.5087 28.355 46.6543 28.4069 46.869 28.4548L47.2255 28.5387C47.9615 28.7145 48.4828 28.9581 48.7894 29.2697C49.1038 29.5732 49.2609 29.9687 49.2609 30.456Z" fill="white"/>
<path d="M53.2177 32.3853C52.7653 32.3853 52.3437 32.3214 51.9527 32.1936C51.5694 32.0578 51.232 31.858 50.9407 31.5944C50.657 31.3308 50.4309 30.9992 50.2622 30.5998C50.1012 30.2004 50.0207 29.733 50.0207 29.1978C50.0207 28.6705 50.1012 28.2191 50.2622 27.8437C50.4309 27.4602 50.6494 27.1486 50.9177 26.909C51.186 26.6613 51.4927 26.4816 51.8377 26.3697C52.1827 26.2499 52.5353 26.19 52.8957 26.19C53.302 26.19 53.67 26.2539 53.9996 26.3817C54.337 26.5095 54.6245 26.6853 54.8621 26.909C55.1075 27.1327 55.2953 27.4003 55.4256 27.7119C55.5636 28.0234 55.6326 28.3629 55.6326 28.7304C55.6326 29.0021 55.5598 29.2098 55.4141 29.3536C55.2684 29.4974 55.0653 29.5892 54.8046 29.6292L51.9642 30.0725C52.0485 30.3362 52.221 30.5359 52.4817 30.6717C52.7423 30.7995 53.0413 30.8634 53.3787 30.8634C53.693 30.8634 53.9881 30.8235 54.2641 30.7436C54.5478 30.6557 54.7778 30.5559 54.9541 30.444C55.0768 30.5239 55.1803 30.6358 55.2646 30.7796C55.3489 30.9234 55.3911 31.0751 55.3911 31.2349C55.3911 31.5944 55.2301 31.862 54.9081 32.0378C54.6628 32.1736 54.3868 32.2655 54.0801 32.3134C53.7735 32.3613 53.486 32.3853 53.2177 32.3853ZM52.8957 27.6759C52.7117 27.6759 52.5507 27.7079 52.4127 27.7718C52.2823 27.8357 52.175 27.9196 52.0907 28.0234C52.0064 28.1193 51.9412 28.2311 51.8952 28.359C51.8568 28.4788 51.8339 28.6026 51.8262 28.7304L53.7926 28.3949C53.7696 28.2351 53.6853 28.0754 53.5396 27.9156C53.394 27.7558 53.1793 27.6759 52.8957 27.6759Z" fill="white"/>
</svg>
