<svg width="441" height="40" viewBox="0 0 441 40" fill="none" xmlns="http://www.w3.org/2000/svg">
<path d="M431.135 0.00013H330.535C330.168 0.00013 329.806 0.00013 329.44 0.00212999C329.134 0.00412999 328.83 0.00993997 328.521 0.01483C327.85 0.0227317 327.18 0.081806 326.517 0.191539C325.856 0.303662 325.215 0.515044 324.616 0.818537C324.018 1.1246 323.472 1.52229 322.998 1.99719C322.52 2.47076 322.122 3.01814 321.819 3.61828C321.515 4.21723 321.305 4.85905 321.194 5.52159C321.083 6.1833 321.023 6.85263 321.015 7.52359C321.006 7.83018 321.005 8.1378 321 8.44444V31.5586C321.005 31.8691 321.006 32.1699 321.015 32.4805C321.023 33.1514 321.083 33.8207 321.194 34.4824C321.304 35.1453 321.515 35.7875 321.819 36.3867C322.122 36.9849 322.52 37.5301 322.998 38.001C323.471 38.478 324.017 38.876 324.616 39.1797C325.215 39.484 325.855 39.6967 326.517 39.8105C327.18 39.9194 327.85 39.9785 328.521 39.9873C328.83 39.9941 329.134 39.998 329.44 39.998C329.806 40 330.168 40 330.535 40H431.135C431.494 40 431.859 40 432.219 39.998C432.523 39.998 432.836 39.9941 433.141 39.9873C433.811 39.9789 434.479 39.9198 435.141 39.8105C435.804 39.6958 436.448 39.4833 437.049 39.1797C437.647 38.8758 438.193 38.4779 438.666 38.001C439.142 37.5282 439.541 36.9835 439.848 36.3867C440.15 35.7871 440.358 35.145 440.467 34.4824C440.578 33.8207 440.64 33.1515 440.652 32.4805C440.656 32.1699 440.656 31.8691 440.656 31.5586C440.664 31.1953 440.664 30.834 440.664 30.4648V9.53623C440.664 9.17002 440.664 8.80674 440.656 8.44444C440.656 8.1378 440.656 7.83018 440.652 7.52355C440.64 6.85253 440.578 6.18335 440.467 5.52155C440.358 4.8594 440.149 4.21762 439.848 3.61824C439.23 2.41532 438.252 1.43615 437.049 0.818447C436.448 0.515696 435.804 0.304369 435.141 0.191449C434.48 0.0812325 433.811 0.0221377 433.141 0.01469C432.836 0.00980997 432.523 0.00394999 432.219 0.00199999C431.859 0 431.494 0 431.135 0V0.00013Z" fill="#A6A6A6"/>
<path d="M329.445 39.1251C329.14 39.1251 328.843 39.1212 328.541 39.1144C327.914 39.1062 327.29 39.0517 326.671 38.9513C326.095 38.852 325.537 38.6673 325.015 38.4034C324.497 38.1416 324.026 37.7983 323.618 37.3868C323.204 36.98 322.859 36.5083 322.597 35.9903C322.333 35.4689 322.149 34.91 322.054 34.3331C321.951 33.7132 321.896 33.0864 321.888 32.4581C321.881 32.2472 321.873 31.545 321.873 31.545V8.44446C321.873 8.44446 321.882 7.75305 321.888 7.54992C321.895 6.92261 321.951 6.29678 322.053 5.67786C322.149 5.09938 322.332 4.53888 322.597 4.01576C322.857 3.49808 323.2 3.02599 323.612 2.61781C324.023 2.20576 324.496 1.86074 325.014 1.59535C325.535 1.33223 326.092 1.14887 326.667 1.05141C327.288 0.949973 327.915 0.895133 328.543 0.887347L329.445 0.875137H432.214L433.127 0.887837C433.75 0.895237 434.371 0.949587 434.985 1.05043C435.566 1.14911 436.13 1.33375 436.656 1.59828C437.694 2.13312 438.539 2.9793 439.071 4.0182C439.332 4.53771 439.512 5.09363 439.606 5.66712C439.71 6.29112 439.768 6.92186 439.78 7.55432C439.783 7.83752 439.783 8.14172 439.783 8.44446C439.791 8.81946 439.791 9.17639 439.791 9.53625V30.4649C439.791 30.8282 439.791 31.1827 439.783 31.5401C439.783 31.8653 439.783 32.1632 439.779 32.4698C439.768 33.0909 439.71 33.7104 439.608 34.3233C439.515 34.9043 439.333 35.4676 439.068 35.9933C438.805 36.5057 438.462 36.9733 438.053 37.379C437.644 37.7927 437.172 38.138 436.653 38.4015C436.128 38.6674 435.566 38.8528 434.985 38.9513C434.367 39.0522 433.742 39.1067 433.116 39.1144C432.823 39.1212 432.517 39.1251 432.219 39.1251L431.135 39.1271L329.445 39.1251Z" fill="black"/>
<path d="M345.769 20.3007C345.78 19.466 346.001 18.6477 346.413 17.9217C346.825 17.1957 347.414 16.5858 348.125 16.1486C347.674 15.5035 347.078 14.9725 346.385 14.598C345.692 14.2234 344.921 14.0156 344.134 13.9909C342.455 13.8147 340.827 14.9958 339.971 14.9958C339.099 14.9958 337.782 14.0084 336.363 14.0376C335.445 14.0673 334.551 14.3341 333.767 14.8122C332.983 15.2903 332.336 15.9632 331.89 16.7655C329.956 20.114 331.399 25.035 333.251 27.7417C334.178 29.067 335.261 30.5475 336.679 30.495C338.066 30.4374 338.584 29.6105 340.258 29.6105C341.917 29.6105 342.403 30.495 343.849 30.4616C345.338 30.4374 346.275 29.1303 347.17 27.7924C347.836 26.8481 348.348 25.8043 348.688 24.6999C347.823 24.3342 347.085 23.722 346.566 22.9397C346.047 22.1574 345.77 21.2396 345.769 20.3007V20.3007Z" fill="white"/>
<path d="M343.037 12.211C343.849 11.2368 344.249 9.98467 344.152 8.72044C342.912 8.85066 341.767 9.44322 340.944 10.38C340.542 10.8377 340.234 11.3701 340.038 11.9469C339.842 12.5237 339.761 13.1335 339.8 13.7414C340.421 13.7478 341.034 13.6134 341.595 13.3483C342.155 13.0832 342.649 12.6944 343.037 12.211Z" fill="white"/>
<path d="M363.302 27.1397H358.569L357.432 30.4961H355.427L359.911 18.0781H361.994L366.477 30.4961H364.438L363.302 27.1397ZM359.059 25.5908H362.811L360.961 20.1435H360.91L359.059 25.5908Z" fill="white"/>
<path d="M376.16 25.9698C376.16 28.7833 374.654 30.5909 372.381 30.5909C371.806 30.621 371.233 30.4884 370.729 30.2083C370.226 29.9281 369.811 29.5118 369.533 29.0069H369.49V33.4913H367.631V21.4424H369.43V22.9483H369.464C369.755 22.4458 370.177 22.0316 370.685 21.7498C371.192 21.468 371.767 21.329 372.347 21.3477C374.645 21.3477 376.16 23.1641 376.16 25.9698ZM374.25 25.9698C374.25 24.1368 373.302 22.9317 371.857 22.9317C370.437 22.9317 369.482 24.1622 369.482 25.9698C369.482 27.794 370.437 29.0157 371.857 29.0157C373.302 29.0157 374.25 27.8194 374.25 25.9698Z" fill="white"/>
<path d="M386.125 25.9698C386.125 28.7833 384.619 30.5909 382.346 30.5909C381.771 30.621 381.198 30.4884 380.694 30.2083C380.19 29.9281 379.776 29.5118 379.498 29.0069H379.455V33.4913H377.596V21.4424H379.395V22.9483H379.429C379.72 22.4458 380.142 22.0316 380.649 21.7498C381.157 21.4679 381.732 21.329 382.312 21.3477C384.61 21.3477 386.125 23.1641 386.125 25.9698ZM384.214 25.9698C384.214 24.1368 383.267 22.9317 381.822 22.9317C380.402 22.9317 379.447 24.1622 379.447 25.9698C379.447 27.794 380.402 29.0157 381.822 29.0157C383.267 29.0157 384.214 27.8194 384.214 25.9698H384.214Z" fill="white"/>
<path d="M392.71 27.0362C392.848 28.2676 394.044 29.0762 395.679 29.0762C397.246 29.0762 398.373 28.2676 398.373 27.1572C398.373 26.1934 397.693 25.6162 396.083 25.2207L394.474 24.833C392.194 24.2822 391.135 23.2158 391.135 21.4854C391.135 19.3428 393.002 17.8711 395.654 17.8711C398.278 17.8711 400.077 19.3428 400.137 21.4854H398.261C398.149 20.2461 397.124 19.4981 395.627 19.4981C394.13 19.4981 393.106 20.2549 393.106 21.3565C393.106 22.2344 393.76 22.751 395.361 23.1465L396.729 23.4824C399.277 24.0849 400.335 25.1084 400.335 26.9248C400.335 29.248 398.485 30.7031 395.541 30.7031C392.788 30.7031 390.928 29.2822 390.808 27.0361L392.71 27.0362Z" fill="white"/>
<path d="M404.346 19.2999V21.4425H406.068V22.9141H404.346V27.9053C404.346 28.6807 404.691 29.0421 405.448 29.0421C405.652 29.0385 405.856 29.0241 406.059 28.9991V30.4619C405.719 30.5255 405.373 30.5543 405.027 30.5479C403.194 30.5479 402.479 29.8594 402.479 28.1036V22.9141H401.163V21.4425H402.479V19.2999H404.346Z" fill="white"/>
<path d="M407.065 25.9699C407.065 23.1212 408.743 21.3312 411.359 21.3312C413.984 21.3312 415.654 23.1212 415.654 25.9699C415.654 28.8263 413.993 30.6085 411.359 30.6085C408.726 30.6085 407.065 28.8263 407.065 25.9699ZM413.76 25.9699C413.76 24.0157 412.865 22.8624 411.359 22.8624C409.853 22.8624 408.959 24.0245 408.959 25.9699C408.959 27.9318 409.853 29.0763 411.359 29.0763C412.865 29.0763 413.76 27.9318 413.76 25.9699H413.76Z" fill="white"/>
<path d="M417.186 21.4424H418.959V22.9834H419.002C419.121 22.5021 419.403 22.0768 419.8 21.7789C420.197 21.481 420.684 21.3287 421.179 21.3477C421.393 21.3469 421.607 21.3702 421.816 21.417V23.1553C421.546 23.0727 421.264 23.0347 420.981 23.043C420.711 23.032 420.442 23.0796 420.192 23.1825C419.942 23.2854 419.718 23.4411 419.534 23.639C419.35 23.8369 419.211 24.0723 419.126 24.329C419.042 24.5856 419.014 24.8575 419.044 25.126V30.4961H417.186L417.186 21.4424Z" fill="white"/>
<path d="M430.384 27.837C430.134 29.4805 428.534 30.6084 426.486 30.6084C423.852 30.6084 422.217 28.8438 422.217 26.0128C422.217 23.173 423.861 21.3312 426.408 21.3312C428.913 21.3312 430.488 23.0519 430.488 25.7969V26.4337H424.093V26.546C424.064 26.8792 424.105 27.2148 424.216 27.5307C424.326 27.8465 424.502 28.1353 424.732 28.3778C424.963 28.6204 425.242 28.8111 425.552 28.9374C425.861 29.0637 426.195 29.1227 426.529 29.1104C426.968 29.1515 427.409 29.0498 427.785 28.8204C428.162 28.5909 428.455 28.246 428.62 27.837L430.384 27.837ZM424.102 25.1348H428.628C428.645 24.8353 428.6 24.5354 428.495 24.2542C428.39 23.973 428.229 23.7165 428.02 23.5007C427.812 23.285 427.561 23.1146 427.283 23.0004C427.006 22.8862 426.708 22.8306 426.408 22.837C426.105 22.8352 425.805 22.8934 425.525 23.0081C425.245 23.1228 424.99 23.2919 424.776 23.5055C424.562 23.7192 424.392 23.9731 424.276 24.2528C424.16 24.5324 424.101 24.8322 424.102 25.1349V25.1348Z" fill="white"/>
<path d="M358.826 8.73106C359.216 8.7031 359.607 8.76196 359.971 8.90339C360.335 9.04482 360.663 9.2653 360.932 9.54892C361.2 9.83254 361.403 10.1722 361.524 10.5435C361.645 10.9148 361.683 11.3084 361.634 11.6959C361.634 13.6021 360.604 14.6978 358.826 14.6978H356.671V8.73106H358.826ZM357.598 13.854H358.723C359.001 13.8706 359.28 13.825 359.538 13.7204C359.797 13.6158 360.029 13.4548 360.217 13.2493C360.406 13.0437 360.546 12.7987 360.628 12.5321C360.71 12.2655 360.731 11.9839 360.69 11.708C360.728 11.4332 360.705 11.1534 360.621 10.8888C360.538 10.6241 360.398 10.3811 360.21 10.1772C360.022 9.97325 359.791 9.81344 359.534 9.70921C359.277 9.60497 359 9.55889 358.723 9.57426H357.598V13.854Z" fill="white"/>
<path d="M362.681 12.4444C362.652 12.1485 362.686 11.8499 362.78 11.5678C362.874 11.2858 363.026 11.0264 363.226 10.8065C363.426 10.5865 363.669 10.4107 363.941 10.2905C364.213 10.1702 364.507 10.108 364.804 10.108C365.101 10.108 365.395 10.1702 365.667 10.2905C365.939 10.4107 366.183 10.5865 366.383 10.8065C366.583 11.0264 366.735 11.2858 366.828 11.5678C366.922 11.8499 366.956 12.1485 366.928 12.4444C366.957 12.7406 366.923 13.0396 366.83 13.3221C366.736 13.6046 366.584 13.8644 366.384 14.0849C366.184 14.3053 365.94 14.4814 365.668 14.6019C365.396 14.7225 365.102 14.7847 364.804 14.7847C364.507 14.7847 364.212 14.7225 363.94 14.6019C363.668 14.4814 363.424 14.3053 363.224 14.0849C363.024 13.8644 362.872 13.6046 362.779 13.3221C362.685 13.0396 362.652 12.7406 362.681 12.4444V12.4444ZM366.014 12.4444C366.014 11.4683 365.575 10.8975 364.806 10.8975C364.033 10.8975 363.599 11.4683 363.599 12.4444C363.599 13.4283 364.033 13.9947 364.806 13.9947C365.575 13.9947 366.014 13.4244 366.014 12.4444H366.014Z" fill="white"/>
<path d="M372.573 14.6977H371.651L370.721 11.3813H370.65L369.724 14.6977H368.811L367.569 10.1948H368.471L369.277 13.6308H369.344L370.27 10.1948H371.122L372.048 13.6308H372.118L372.921 10.1948H373.81L372.573 14.6977Z" fill="white"/>
<path d="M374.854 10.1948H375.709V10.9102H375.775C375.888 10.6533 376.078 10.4379 376.319 10.2941C376.56 10.1503 376.84 10.0852 377.119 10.1079C377.338 10.0914 377.558 10.1245 377.763 10.2046C377.967 10.2847 378.151 10.4098 378.301 10.5706C378.451 10.7315 378.562 10.9239 378.628 11.1338C378.693 11.3436 378.71 11.5654 378.678 11.7828V14.6978H377.789V12.0059C377.789 11.2823 377.475 10.9224 376.817 10.9224C376.669 10.9155 376.52 10.9408 376.382 10.9966C376.244 11.0524 376.12 11.1375 376.018 11.2459C375.915 11.3542 375.838 11.4834 375.79 11.6246C375.743 11.7657 375.726 11.9154 375.742 12.0635V14.6979H374.854L374.854 10.1948Z" fill="white"/>
<path d="M380.094 8.43704H380.982V14.6978H380.094V8.43704Z" fill="white"/>
<path d="M382.218 12.4443C382.189 12.1484 382.223 11.8498 382.317 11.5677C382.411 11.2856 382.563 11.0263 382.763 10.8063C382.963 10.5863 383.207 10.4105 383.478 10.2902C383.75 10.17 384.044 10.1078 384.342 10.1078C384.639 10.1078 384.933 10.17 385.205 10.2902C385.477 10.4105 385.72 10.5863 385.92 10.8063C386.12 11.0263 386.272 11.2856 386.366 11.5677C386.46 11.8498 386.494 12.1484 386.465 12.4443C386.494 12.7406 386.461 13.0396 386.367 13.3221C386.273 13.6046 386.122 13.8644 385.922 14.0849C385.722 14.3053 385.478 14.4814 385.206 14.6019C384.934 14.7225 384.639 14.7847 384.342 14.7847C384.044 14.7847 383.75 14.7225 383.477 14.6019C383.205 14.4814 382.961 14.3053 382.761 14.0849C382.561 13.8644 382.41 13.6046 382.316 13.3221C382.222 13.0396 382.189 12.7406 382.218 12.4443V12.4443ZM385.551 12.4443C385.551 11.4682 385.112 10.8974 384.343 10.8974C383.57 10.8974 383.136 11.4683 383.136 12.4443C383.136 13.4283 383.57 13.9947 384.343 13.9947C385.112 13.9947 385.551 13.4243 385.551 12.4443H385.551Z" fill="white"/>
<path d="M387.401 13.4243C387.401 12.6137 388.004 12.1465 389.076 12.08L390.295 12.0097V11.6211C390.295 11.1455 389.981 10.8769 389.374 10.8769C388.877 10.8769 388.534 11.059 388.435 11.3774H387.575C387.666 10.6039 388.393 10.1078 389.415 10.1078C390.543 10.1078 391.18 10.6698 391.18 11.6211V14.6978H390.325V14.065H390.254C390.112 14.292 389.911 14.477 389.674 14.6012C389.436 14.7254 389.17 14.7844 388.902 14.772C388.713 14.7916 388.522 14.7715 388.341 14.7128C388.16 14.6541 387.994 14.5581 387.852 14.4312C387.711 14.3042 387.598 14.149 387.52 13.9756C387.442 13.8022 387.402 13.6144 387.401 13.4243V13.4243ZM390.295 13.0395V12.6631L389.196 12.7334C388.576 12.7749 388.294 12.9858 388.294 13.3828C388.294 13.7881 388.646 14.0239 389.129 14.0239C389.271 14.0383 389.414 14.024 389.55 13.9819C389.686 13.9398 389.812 13.8708 389.921 13.7789C390.03 13.6871 390.119 13.5743 390.183 13.4473C390.248 13.3202 390.286 13.1816 390.295 13.0395V13.0395Z" fill="white"/>
<path d="M392.348 12.4444C392.348 11.0215 393.08 10.1202 394.217 10.1202C394.499 10.1072 394.778 10.1746 395.023 10.3145C395.267 10.4544 395.467 10.661 395.598 10.9102H395.665V8.43704H396.553V14.6978H395.702V13.9864H395.631C395.49 14.2339 395.283 14.4379 395.034 14.5764C394.785 14.7149 394.502 14.7825 394.217 14.772C393.072 14.7721 392.348 13.8707 392.348 12.4444ZM393.266 12.4444C393.266 13.3995 393.716 13.9742 394.469 13.9742C395.218 13.9742 395.681 13.3912 395.681 12.4483C395.681 11.5098 395.213 10.9185 394.469 10.9185C393.721 10.9185 393.266 11.4971 393.266 12.4444H393.266Z" fill="white"/>
<path d="M400.23 12.4444C400.202 12.1485 400.236 11.8499 400.329 11.5678C400.423 11.2858 400.575 11.0264 400.775 10.8065C400.975 10.5865 401.219 10.4107 401.49 10.2905C401.762 10.1702 402.056 10.108 402.354 10.108C402.651 10.108 402.945 10.1702 403.217 10.2905C403.489 10.4107 403.732 10.5865 403.932 10.8065C404.132 11.0264 404.284 11.2858 404.378 11.5678C404.472 11.8499 404.505 12.1485 404.477 12.4444C404.506 12.7406 404.472 13.0396 404.379 13.3221C404.285 13.6046 404.134 13.8644 403.934 14.0849C403.734 14.3053 403.49 14.4814 403.218 14.6019C402.945 14.7225 402.651 14.7847 402.354 14.7847C402.056 14.7847 401.762 14.7225 401.489 14.6019C401.217 14.4814 400.973 14.3053 400.773 14.0849C400.573 13.8644 400.422 13.6046 400.328 13.3221C400.235 13.0396 400.201 12.7406 400.23 12.4444V12.4444ZM403.563 12.4444C403.563 11.4683 403.125 10.8975 402.355 10.8975C401.583 10.8975 401.148 11.4683 401.148 12.4444C401.148 13.4283 401.583 13.9947 402.355 13.9947C403.125 13.9947 403.563 13.4244 403.563 12.4444Z" fill="white"/>
<path d="M405.669 10.1948H406.525V10.9102H406.591C406.704 10.6533 406.894 10.4379 407.135 10.2941C407.376 10.1503 407.655 10.0852 407.935 10.1079C408.154 10.0914 408.374 10.1245 408.579 10.2046C408.783 10.2847 408.967 10.4098 409.117 10.5706C409.267 10.7315 409.378 10.9239 409.443 11.1338C409.509 11.3436 409.526 11.5654 409.494 11.7828V14.6978H408.605V12.0059C408.605 11.2823 408.291 10.9224 407.633 10.9224C407.485 10.9155 407.336 10.9408 407.198 10.9966C407.06 11.0524 406.936 11.1375 406.833 11.2459C406.731 11.3542 406.654 11.4834 406.606 11.6246C406.559 11.7657 406.542 11.9154 406.558 12.0635V14.6979H405.669V10.1948Z" fill="white"/>
<path d="M414.515 9.07376V10.2154H415.491V10.9639H414.515V13.2793C414.515 13.751 414.709 13.9576 415.152 13.9576C415.265 13.9572 415.378 13.9503 415.491 13.937V14.6773C415.331 14.7058 415.169 14.721 415.007 14.7227C414.019 14.7227 413.625 14.375 413.625 13.5069V10.9639H412.911V10.2153H413.625V9.07376H414.515Z" fill="white"/>
<path d="M416.705 8.43704H417.585V10.9185H417.656C417.774 10.6592 417.969 10.4426 418.215 10.2982C418.461 10.1539 418.745 10.0888 419.029 10.1119C419.247 10.1 419.465 10.1364 419.667 10.2184C419.869 10.3005 420.051 10.4261 420.199 10.5865C420.347 10.7468 420.458 10.9379 420.524 11.146C420.59 11.3541 420.609 11.5742 420.58 11.7906V14.6978H419.69V12.0098C419.69 11.2906 419.355 10.9263 418.727 10.9263C418.574 10.9138 418.421 10.9348 418.277 10.9878C418.133 11.0409 418.003 11.1247 417.895 11.2334C417.787 11.3422 417.704 11.4732 417.652 11.6173C417.6 11.7615 417.58 11.9152 417.593 12.0679V14.6978H416.705L416.705 8.43704Z" fill="white"/>
<path d="M425.761 13.4819C425.641 13.8935 425.379 14.2495 425.022 14.4876C424.666 14.7258 424.236 14.8309 423.81 14.7847C423.513 14.7925 423.219 14.7357 422.946 14.6182C422.674 14.5006 422.43 14.3252 422.232 14.1041C422.034 13.8829 421.887 13.6214 421.8 13.3375C421.713 13.0537 421.689 12.7544 421.73 12.4604C421.691 12.1655 421.715 11.8656 421.801 11.5809C421.888 11.2962 422.034 11.0335 422.231 10.8104C422.428 10.5873 422.671 10.4091 422.942 10.2879C423.214 10.1667 423.509 10.1053 423.806 10.1078C425.059 10.1078 425.815 10.9639 425.815 12.3779V12.688H422.635V12.7378C422.621 12.903 422.642 13.0694 422.696 13.2261C422.75 13.3829 422.837 13.5266 422.95 13.648C423.062 13.7695 423.2 13.866 423.352 13.9314C423.504 13.9968 423.669 14.0296 423.834 14.0278C424.047 14.0533 424.262 14.015 424.453 13.9178C424.644 13.8206 424.801 13.6689 424.906 13.4819L425.761 13.4819ZM422.635 12.0307H424.91C424.921 11.8796 424.9 11.7278 424.849 11.5851C424.798 11.4424 424.718 11.3119 424.614 11.202C424.509 11.0922 424.383 11.0053 424.243 10.9472C424.103 10.889 423.953 10.8607 423.801 10.8642C423.648 10.8623 423.495 10.8911 423.353 10.9491C423.21 11.007 423.081 11.0929 422.972 11.2016C422.864 11.3103 422.778 11.4397 422.72 11.5821C422.662 11.7245 422.633 11.877 422.635 12.0307H422.635Z" fill="white"/>
<path d="M316 39.9999H191C188.25 39.9999 186 37.75 186 35V4.99999C186 2.25 188.25 0 191 0H316C318.75 0 321 2.25 321 4.99999V35C321 37.75 318.75 39.9999 316 39.9999Z" fill="black"/>
<path d="M316 0.799999C318.32 0.799999 320.2 2.68 320.2 4.99999V35C320.2 37.32 318.32 39.1999 316 39.1999H191C188.68 39.1999 186.8 37.32 186.8 35V4.99999C186.8 2.68 188.68 0.799999 191 0.799999H316ZM316 0H191C188.25 0 186 2.25 186 4.99999V35C186 37.75 188.25 39.9999 191 39.9999H316C318.75 39.9999 321 37.75 321 35V4.99999C321 2.25 318.75 0 316 0Z" fill="#A6A6A6"/>
<path d="M233.42 10.24C233.42 11.08 233.17 11.75 232.67 12.24C232.11 12.83 231.37 13.13 230.47 13.13C229.6 13.13 228.87 12.83 228.26 12.23C227.65 11.63 227.35 10.88 227.35 9.99996C227.35 9.10995 227.65 8.36994 228.26 7.76993C228.87 7.16992 229.6 6.86992 230.47 6.86992C230.9 6.86992 231.31 6.94992 231.7 7.11992C232.09 7.28992 232.4 7.50993 232.64 7.78993L232.11 8.31994C231.71 7.84993 231.17 7.60993 230.47 7.60993C229.84 7.60993 229.29 7.82993 228.83 8.27994C228.37 8.71994 228.14 9.29995 228.14 10.01C228.14 10.72 228.37 11.3 228.83 11.74C229.29 12.18 229.84 12.41 230.47 12.41C231.14 12.41 231.7 12.19 232.15 11.74C232.44 11.45 232.61 11.04 232.65 10.52H230.47V9.79995H233.38C233.4 9.94996 233.42 10.1 233.42 10.24Z" fill="white" stroke="white" stroke-width="0.2" stroke-miterlimit="10"/>
<path d="M238.03 7.73991H235.3V9.63991H237.76V10.3599H235.3V12.2599H238.03V12.9999H234.53V6.99991H238.03V7.73991V7.73991Z" fill="white" stroke="white" stroke-width="0.2" stroke-miterlimit="10"/>
<path d="M241.28 12.9999H240.51V7.73991H238.83V6.99991H242.95V7.73991H241.27V12.9999H241.28Z" fill="white" stroke="white" stroke-width="0.2" stroke-miterlimit="10"/>
<path d="M245.94 12.9999V6.99991H246.71V12.9999H245.94Z" fill="white" stroke="white" stroke-width="0.2" stroke-miterlimit="10"/>
<path d="M250.13 12.9999H249.36V7.73991H247.68V6.99991H251.8V7.73991H250.12V12.9999H250.13Z" fill="white" stroke="white" stroke-width="0.2" stroke-miterlimit="10"/>
<path d="M259.61 12.22C259.02 12.83 258.29 13.13 257.41 13.13C256.53 13.13 255.8 12.83 255.21 12.22C254.62 11.61 254.33 10.87 254.33 9.99996C254.33 9.12995 254.62 8.37994 255.21 7.77993C255.8 7.16992 256.53 6.86992 257.41 6.86992C258.28 6.86992 259.01 7.16992 259.61 7.77993C260.2 8.38994 260.5 9.12995 260.5 9.99996C260.49 10.88 260.2 11.62 259.61 12.22ZM255.78 11.72C256.22 12.17 256.77 12.39 257.41 12.39C258.05 12.39 258.6 12.17 259.04 11.72C259.48 11.27 259.71 10.7 259.71 9.99996C259.71 9.29995 259.49 8.72994 259.04 8.27994C258.6 7.82993 258.05 7.60993 257.41 7.60993C256.77 7.60993 256.22 7.82993 255.78 8.27994C255.34 8.72994 255.11 9.29995 255.11 9.99996C255.11 10.7 255.34 11.27 255.78 11.72Z" fill="white" stroke="white" stroke-width="0.2" stroke-miterlimit="10"/>
<path d="M261.58 12.9999V6.99991H262.52L265.44 11.6699H265.47L265.44 10.5099V6.99991H266.21V12.9999H265.41L262.36 8.10991H262.33L262.36 9.26991V12.9999H261.58Z" fill="white" stroke="white" stroke-width="0.2" stroke-miterlimit="10"/>
<path d="M254.14 21.75C251.79 21.75 249.87 23.54 249.87 26C249.87 28.4501 251.79 30.2501 254.14 30.2501C256.49 30.2501 258.41 28.4501 258.41 26C258.41 23.54 256.49 21.75 254.14 21.75ZM254.14 28.5801C252.85 28.5801 251.74 27.52 251.74 26C251.74 24.47 252.85 23.42 254.14 23.42C255.43 23.42 256.54 24.47 256.54 26C256.54 27.52 255.42 28.5801 254.14 28.5801ZM244.82 21.75C242.47 21.75 240.55 23.54 240.55 26C240.55 28.4501 242.47 30.2501 244.82 30.2501C247.17 30.2501 249.09 28.4501 249.09 26C249.09 23.54 247.17 21.75 244.82 21.75ZM244.82 28.5801C243.53 28.5801 242.42 27.52 242.42 26C242.42 24.47 243.53 23.42 244.82 23.42C246.11 23.42 247.22 24.47 247.22 26C247.22 27.52 246.11 28.5801 244.82 28.5801ZM233.74 23.06V24.86H238.06C237.93 25.87 237.59 26.62 237.08 27.13C236.45 27.7601 235.47 28.4501 233.75 28.4501C231.09 28.4501 229.01 26.31 229.01 23.65C229.01 20.99 231.09 18.85 233.75 18.85C235.18 18.85 236.23 19.41 237 20.14L238.27 18.87C237.19 17.84 235.76 17.05 233.74 17.05C230.1 17.05 227.04 20.01 227.04 23.66C227.04 27.3 230.1 30.2701 233.74 30.2701C235.71 30.2701 237.19 29.6301 238.35 28.4201C239.54 27.23 239.91 25.55 239.91 24.2C239.91 23.78 239.88 23.39 239.81 23.07H233.74V23.06ZM279.05 24.46C278.7 23.51 277.62 21.75 275.41 21.75C273.22 21.75 271.4 23.47 271.4 26C271.4 28.3801 273.2 30.2501 275.62 30.2501C277.57 30.2501 278.7 29.0601 279.16 28.3701L277.71 27.4001C277.23 28.1101 276.57 28.5801 275.62 28.5801C274.67 28.5801 273.99 28.1401 273.56 27.29L279.25 24.94L279.05 24.46ZM273.25 25.88C273.2 24.24 274.52 23.4 275.47 23.4C276.21 23.4 276.84 23.77 277.05 24.3L273.25 25.88ZM268.63 30.0001H270.5V17.5H268.63V30.0001ZM265.57 22.7H265.5C265.08 22.2 264.28 21.75 263.26 21.75C261.13 21.75 259.18 23.62 259.18 26.02C259.18 28.4001 261.13 30.2601 263.26 30.2601C264.27 30.2601 265.08 29.8101 265.5 29.2901H265.56V29.9001C265.56 31.5301 264.69 32.4001 263.29 32.4001C262.15 32.4001 261.44 31.5801 261.15 30.8901L259.52 31.5701C259.99 32.7001 261.23 34.0801 263.29 34.0801C265.48 34.0801 267.33 32.7901 267.33 29.6501V22.01H265.56V22.7H265.57ZM263.42 28.5801C262.13 28.5801 261.05 27.5001 261.05 26.02C261.05 24.52 262.13 23.43 263.42 23.43C264.69 23.43 265.69 24.53 265.69 26.02C265.7 27.5001 264.7 28.5801 263.42 28.5801ZM287.81 17.5H283.34V30.0001H285.21V25.26H287.82C289.89 25.26 291.92 23.76 291.92 21.38C291.92 19 289.87 17.5 287.81 17.5ZM287.85 23.52H285.2V19.23H287.85C289.25 19.23 290.04 20.39 290.04 21.37C290.04 22.35 289.25 23.52 287.85 23.52ZM299.39 21.73C298.04 21.73 296.64 22.33 296.06 23.64L297.72 24.33C298.07 23.64 298.73 23.41 299.42 23.41C300.38 23.41 301.37 23.99 301.38 25.02V25.15C301.04 24.96 300.32 24.67 299.43 24.67C297.64 24.67 295.83 25.65 295.83 27.48C295.83 29.1501 297.29 30.2301 298.93 30.2301C300.18 30.2301 300.88 29.6701 301.31 29.0101H301.37V29.9801H303.17V25.19C303.18 22.97 301.52 21.73 299.39 21.73ZM299.16 28.5801C298.55 28.5801 297.7 28.2701 297.7 27.5201C297.7 26.56 298.76 26.19 299.68 26.19C300.5 26.19 300.89 26.37 301.38 26.61C301.24 27.7601 300.24 28.5801 299.16 28.5801ZM309.74 22L307.6 27.42H307.54L305.32 22H303.31L306.64 29.5801L304.74 33.7901H306.69L311.82 22H309.74ZM292.94 30.0001H294.81V17.5H292.94V30.0001Z" fill="white"/>
<path d="M196.44 7.53997C196.15 7.84997 195.98 8.32997 195.98 8.93997V31.0599C195.98 31.6799 196.15 32.1599 196.44 32.4599L196.51 32.5299L208.9 20.1499V19.9999V19.8499L196.51 7.46997L196.44 7.53997Z" fill="url(#paint0_linear_1_107)"/>
<path d="M213.03 24.2799L208.9 20.15V20V19.85L213.03 15.72L213.12 15.77L218.01 18.55C219.41 19.34 219.41 20.64 218.01 21.4399L213.12 24.2199L213.03 24.2799Z" fill="url(#paint1_linear_1_107)"/>
<path d="M213.12 24.2199L208.9 19.9999L196.44 32.4599C196.9 32.9499 197.66 33.0099 198.52 32.5199L213.12 24.2199Z" fill="url(#paint2_linear_1_107)"/>
<path d="M213.12 15.7799L198.51 7.47996C197.65 6.98996 196.89 7.04996 196.43 7.53996L208.9 19.9999L213.12 15.7799Z" fill="url(#paint3_linear_1_107)"/>
<path opacity="0.2" d="M213.03 24.1299L198.51 32.3799C197.7 32.8399 196.97 32.8099 196.51 32.3899L196.44 32.4599L196.51 32.5299C196.98 32.9499 197.7 32.9799 198.51 32.5199L213.12 24.2199L213.03 24.1299Z" fill="black"/>
<path opacity="0.12" d="M196.44 32.3201C196.15 32.0101 195.98 31.5301 195.98 30.9201V31.0701C195.98 31.6901 196.15 32.1701 196.44 32.4701L196.51 32.4001L196.44 32.3201Z" fill="black"/>
<path opacity="0.12" d="M218.01 21.2999L213.02 24.13L213.11 24.22L218 21.4399C218.7 21.0399 219.05 20.5199 219.05 19.9999C219 20.4699 218.65 20.9399 218.01 21.2999Z" fill="black"/>
<path opacity="0.25" d="M198.51 7.61986L218.01 18.6999C218.64 19.0599 219 19.5199 219.06 19.9999C219.06 19.4799 218.71 18.9499 218.01 18.5599L198.51 7.47986C197.11 6.68986 195.97 7.34986 195.97 8.94987V9.09987C195.97 7.48986 197.12 6.82986 198.51 7.61986Z" fill="white"/>
<path d="M162 28H186V25.3333H162V28ZM162 21.3333H186V18.6667H162V21.3333ZM162 12V14.6667H186V12H162Z" fill="white"/>
<path d="M135.659 17.6587V14.3413H132.341L130 12L127.659 14.3413H124.341V17.6587L122 20L124.341 22.3413V25.6587H127.659L130 28L132.341 25.6587H135.659V22.3413L138 20L135.659 17.6587ZM130 24.244C129.37 24.244 128.769 24.1026 128.232 23.855C129.689 23.183 130.707 21.7118 130.707 20C130.707 18.2882 129.689 16.817 128.232 16.145C128.769 15.8974 129.37 15.756 130 15.756C132.341 15.756 134.244 17.6587 134.244 20C134.244 22.3413 132.341 24.244 130 24.244Z" fill="white"/>
<path d="M150 8C143.376 8 138 13.376 138 20C138 26.624 143.376 32 150 32C156.624 32 162 26.624 162 20C162 13.376 156.624 8 150 8ZM150 11.6C151.992 11.6 153.6 13.208 153.6 15.2C153.6 17.192 151.992 18.8 150 18.8C148.008 18.8 146.4 17.192 146.4 15.2C146.4 13.208 148.008 11.6 150 11.6ZM150 28.64C147 28.64 144.348 27.104 142.8 24.776C142.836 22.388 147.6 21.08 150 21.08C152.388 21.08 157.164 22.388 157.2 24.776C155.652 27.104 153 28.64 150 28.64Z" fill="white"/>
<path d="M0.500119 14.6142C0.377283 14.4162 0.26322 14.1462 0.157932 13.8043C0.0526441 13.4623 0 13.1024 0 12.7244C0 12.0225 0.149158 11.5186 0.447475 11.2126C0.763339 10.9066 1.16694 10.7537 1.65829 10.7537H13.1347C13.2575 10.9516 13.3716 11.2216 13.4769 11.5636C13.5822 11.9055 13.6348 12.2655 13.6348 12.6434C13.6348 13.3453 13.4769 13.8493 13.161 14.1552C12.8627 14.4612 12.4679 14.6142 11.9765 14.6142H9.05478V27.0866C8.86175 27.1406 8.55466 27.1946 8.13351 27.2486C7.72991 27.3026 7.3263 27.3296 6.9227 27.3296C6.51909 27.3296 6.15936 27.2936 5.84349 27.2216C5.54518 27.1676 5.29073 27.0596 5.08015 26.8976C4.86958 26.7357 4.71165 26.5107 4.60636 26.2227C4.50107 25.9348 4.44843 25.5568 4.44843 25.0889V14.6142H0.500119Z" fill="#3077C6"/>
<path d="M18.942 27.1676C18.7665 27.2216 18.4858 27.2756 18.0997 27.3296C17.7312 27.3836 17.3451 27.4106 16.9415 27.4106C16.5555 27.4106 16.2045 27.3836 15.8886 27.3296C15.5903 27.2756 15.3359 27.1676 15.1253 27.0056C14.9147 26.8436 14.748 26.6277 14.6252 26.3577C14.5199 26.0697 14.4673 25.7008 14.4673 25.2508V17.1519C14.4673 16.7379 14.5374 16.387 14.6778 16.099C14.8358 15.793 15.0551 15.5231 15.3359 15.2891C15.6166 15.0551 15.9588 14.8481 16.3624 14.6682C16.7836 14.4702 17.2311 14.2992 17.7049 14.1552C18.1787 14.0112 18.67 13.9033 19.1789 13.8313C19.6878 13.7413 20.1967 13.6963 20.7056 13.6963C21.5479 13.6963 22.2147 13.8673 22.7061 14.2092C23.1974 14.5332 23.4431 15.0731 23.4431 15.829C23.4431 16.081 23.408 16.333 23.3378 16.5849C23.2676 16.8189 23.1798 17.0349 23.0746 17.2328C22.706 17.2328 22.3288 17.2508 21.9427 17.2868C21.5567 17.3228 21.1794 17.3768 20.8109 17.4488C20.4424 17.5208 20.0914 17.6018 19.758 17.6918C19.4421 17.7638 19.1701 17.8538 18.942 17.9618V27.1676Z" fill="#3077C6"/>
<path d="M25.1838 10.4297C25.1838 9.74578 25.4032 9.16985 25.8419 8.70191C26.2981 8.23397 26.8947 8 27.6318 8C28.3688 8 28.9566 8.23397 29.3953 8.70191C29.8516 9.16985 30.0797 9.74578 30.0797 10.4297C30.0797 11.1136 29.8516 11.6895 29.3953 12.1575C28.9566 12.6254 28.3688 12.8594 27.6318 12.8594C26.8947 12.8594 26.2981 12.6254 25.8419 12.1575C25.4032 11.6895 25.1838 11.1136 25.1838 10.4297ZM29.8691 27.1676C29.6761 27.2036 29.3866 27.2486 29.0005 27.3026C28.632 27.3746 28.2547 27.4106 27.8687 27.4106C27.4826 27.4106 27.1316 27.3836 26.8158 27.3296C26.5175 27.2756 26.263 27.1676 26.0524 27.0056C25.8419 26.8436 25.6752 26.6277 25.5523 26.3577C25.447 26.0697 25.3944 25.7008 25.3944 25.2508V14.2632C25.5874 14.2272 25.8682 14.1822 26.2367 14.1282C26.6228 14.0562 27.0088 14.0202 27.3949 14.0202C27.7809 14.0202 28.1231 14.0472 28.4214 14.1012C28.7373 14.1552 29.0005 14.2632 29.2111 14.4252C29.4217 14.5872 29.5796 14.8121 29.6849 15.1001C29.8077 15.3701 29.8691 15.73 29.8691 16.18V27.1676Z" fill="#3077C6"/>
<path d="M38.5877 13.6693C39.6406 13.6693 40.6145 13.8133 41.5094 14.1012C42.4219 14.3712 43.2028 14.7942 43.8521 15.3701C44.5014 15.946 45.0103 16.6749 45.3788 17.5568C45.7473 18.4207 45.9316 19.4556 45.9316 20.6614C45.9316 21.8133 45.7736 22.8211 45.4578 23.685C45.1419 24.5489 44.6944 25.2778 44.1153 25.8718C43.5362 26.4477 42.8343 26.8796 42.0096 27.1676C41.2024 27.4556 40.2986 27.5995 39.2984 27.5995C38.5438 27.5995 37.8419 27.4826 37.1926 27.2486V31.73C37.0172 31.784 36.7364 31.838 36.3503 31.892C35.9643 31.964 35.5694 32 35.1658 32C34.7798 32 34.4288 31.973 34.113 31.919C33.8146 31.865 33.5602 31.757 33.3496 31.5951C33.139 31.4331 32.9811 31.2081 32.8758 30.9201C32.7705 30.6502 32.7179 30.2902 32.7179 29.8403V16.8819C32.7179 16.396 32.8144 16 33.0074 15.694C33.218 15.3881 33.4988 15.1091 33.8497 14.8571C34.3937 14.4972 35.0693 14.2092 35.8765 13.9933C36.6837 13.7773 37.5875 13.6693 38.5877 13.6693ZM38.6403 23.982C40.4478 23.982 41.3515 22.8751 41.3515 20.6614C41.3515 19.5096 41.1234 18.6547 40.6671 18.0967C40.2284 17.5388 39.5879 17.2598 38.7456 17.2598C38.4122 17.2598 38.1139 17.3048 37.8507 17.3948C37.5875 17.4668 37.3593 17.5568 37.1663 17.6648V23.604C37.3769 23.712 37.605 23.802 37.8507 23.874C38.0964 23.946 38.3596 23.982 38.6403 23.982Z" fill="#3077C6"/>
<path d="M62.724 27.0866C62.531 27.1406 62.2239 27.1946 61.8027 27.2486C61.3991 27.3026 60.9955 27.3296 60.5919 27.3296C60.1883 27.3296 59.8286 27.2936 59.5127 27.2216C59.2144 27.1676 58.9599 27.0596 58.7494 26.8976C58.5388 26.7357 58.3808 26.5107 58.2756 26.2227C58.1703 25.9348 58.1176 25.5568 58.1176 25.0889V20.8774H53.0638V27.0866C52.8708 27.1406 52.5637 27.1946 52.1425 27.2486C51.7389 27.3026 51.3353 27.3296 50.9317 27.3296C50.5281 27.3296 50.1684 27.2936 49.8525 27.2216C49.5542 27.1676 49.2997 27.0596 49.0892 26.8976C48.8786 26.7357 48.7207 26.5107 48.6154 26.2227C48.5101 25.9348 48.4574 25.5568 48.4574 25.0889V10.8346C48.6505 10.7986 48.9576 10.7537 49.3787 10.6997C49.7999 10.6277 50.2035 10.5917 50.5895 10.5917C50.9931 10.5917 51.3441 10.6277 51.6424 10.6997C51.9583 10.7537 52.2215 10.8616 52.4321 11.0236C52.6426 11.1856 52.8006 11.4106 52.9059 11.6985C53.0111 11.9865 53.0638 12.3645 53.0638 12.8324V17.1519H58.1176V10.8346C58.3107 10.7986 58.6177 10.7537 59.0389 10.6997C59.46 10.6277 59.8637 10.5917 60.2497 10.5917C60.6533 10.5917 61.0043 10.6277 61.3026 10.6997C61.6185 10.7537 61.8817 10.8616 62.0923 11.0236C62.3028 11.1856 62.4608 11.4106 62.5661 11.6985C62.6713 11.9865 62.724 12.3645 62.724 12.8324V27.0866Z" fill="#3077C6"/>
<path d="M79.0404 20.6344C79.0404 21.7503 78.8737 22.7492 78.5402 23.631C78.2068 24.4949 77.733 25.2238 77.1188 25.8178C76.5222 26.4117 75.8027 26.8616 74.9604 27.1676C74.1181 27.4736 73.1793 27.6265 72.144 27.6265C71.1086 27.6265 70.1698 27.4646 69.3275 27.1406C68.4852 26.8166 67.757 26.3577 67.1428 25.7638C66.5462 25.1519 66.0811 24.4139 65.7477 23.5501C65.4143 22.6862 65.2476 21.7143 65.2476 20.6344C65.2476 19.5726 65.4143 18.6097 65.7477 17.7458C66.0811 16.8819 66.5462 16.153 67.1428 15.5591C67.757 14.9471 68.4852 14.4792 69.3275 14.1552C70.1698 13.8313 71.1086 13.6693 72.144 13.6693C73.1793 13.6693 74.1181 13.8403 74.9604 14.1822C75.8027 14.5062 76.5222 14.9741 77.1188 15.5861C77.733 16.18 78.2068 16.9089 78.5402 17.7728C78.8737 18.6367 79.0404 19.5906 79.0404 20.6344ZM69.8276 20.6344C69.8276 21.7323 70.0294 22.5782 70.4331 23.1721C70.8542 23.748 71.4333 24.036 72.1703 24.036C72.9073 24.036 73.4689 23.739 73.8549 23.1451C74.2585 22.5512 74.4603 21.7143 74.4603 20.6344C74.4603 19.5546 74.2585 18.7267 73.8549 18.1507C73.4513 17.5568 72.881 17.2598 72.144 17.2598C71.407 17.2598 70.8367 17.5568 70.4331 18.1507C70.0294 18.7267 69.8276 19.5546 69.8276 20.6344Z" fill="#3077C6"/>
<path d="M81.2234 14.2632C81.3989 14.2092 81.6709 14.1552 82.0394 14.1012C82.4255 14.0472 82.8203 14.0202 83.2239 14.0202C83.61 14.0202 83.9522 14.0472 84.2505 14.1012C84.5663 14.1552 84.8296 14.2632 85.0401 14.4252C85.2507 14.5872 85.4087 14.8121 85.5139 15.1001C85.6368 15.3701 85.6982 15.73 85.6982 16.18V21.9843C85.6982 22.7222 85.8737 23.2531 86.2246 23.5771C86.5756 23.883 87.0845 24.036 87.7513 24.036C88.1549 24.036 88.4795 24 88.7252 23.928C88.9884 23.856 89.1903 23.784 89.3306 23.712V14.2632C89.5061 14.2092 89.7781 14.1552 90.1466 14.1012C90.5327 14.0472 90.9275 14.0202 91.3311 14.0202C91.7172 14.0202 92.0593 14.0472 92.3577 14.1012C92.6735 14.1552 92.9367 14.2632 93.1473 14.4252C93.3579 14.5872 93.5158 14.8121 93.6211 15.1001C93.744 15.3701 93.8054 15.73 93.8054 16.18V24.387C93.8054 25.2868 93.4369 25.9618 92.6999 26.4117C92.0857 26.8076 91.3487 27.1046 90.4888 27.3026C89.6465 27.5186 88.7252 27.6265 87.725 27.6265C86.7774 27.6265 85.9 27.5186 85.0928 27.3026C84.3031 27.0866 83.6187 26.7537 83.0397 26.3037C82.4606 25.8538 82.0131 25.2778 81.6972 24.5759C81.3814 23.856 81.2234 22.9921 81.2234 21.9843V14.2632Z" fill="#3077C6"/>
<path d="M107.336 23.2801C107.336 24.6479 106.836 25.7188 105.835 26.4927C104.835 27.2666 103.361 27.6535 101.413 27.6535C100.676 27.6535 99.9919 27.5996 99.3602 27.4916C98.7284 27.3836 98.1844 27.2216 97.7282 27.0056C97.2895 26.7717 96.9385 26.4837 96.6753 26.1417C96.4296 25.7998 96.3068 25.3948 96.3068 24.9269C96.3068 24.4949 96.3945 24.135 96.57 23.847C96.7455 23.5411 96.9561 23.2891 97.2017 23.0911C97.7106 23.3791 98.2897 23.64 98.939 23.874C99.6058 24.09 100.369 24.198 101.229 24.198C101.773 24.198 102.185 24.117 102.466 23.955C102.764 23.793 102.914 23.5771 102.914 23.3071C102.914 23.0551 102.808 22.8571 102.598 22.7132C102.387 22.5692 102.036 22.4522 101.545 22.3622L100.755 22.2002C99.2285 21.8943 98.0879 21.4173 97.3334 20.7694C96.5963 20.1035 96.2278 19.1586 96.2278 17.9348C96.2278 17.2688 96.3682 16.6659 96.649 16.126C96.9298 15.5861 97.3246 15.1361 97.8335 14.7762C98.3424 14.4162 98.9478 14.1372 99.6497 13.9393C100.369 13.7413 101.159 13.6423 102.019 13.6423C102.668 13.6423 103.273 13.6963 103.835 13.8043C104.414 13.8943 104.914 14.0382 105.335 14.2362C105.756 14.4342 106.09 14.6952 106.335 15.0191C106.581 15.3251 106.704 15.694 106.704 16.126C106.704 16.5399 106.625 16.8999 106.467 17.2058C106.327 17.4938 106.142 17.7368 105.914 17.9348C105.774 17.8448 105.563 17.7548 105.283 17.6648C105.002 17.5568 104.695 17.4668 104.361 17.3948C104.028 17.3048 103.686 17.2328 103.335 17.1789C103.001 17.1249 102.694 17.0979 102.414 17.0979C101.834 17.0979 101.387 17.1699 101.071 17.3138C100.755 17.4398 100.597 17.6468 100.597 17.9348C100.597 18.1327 100.685 18.2947 100.861 18.4207C101.036 18.5467 101.369 18.6637 101.861 18.7717L102.677 18.9606C104.361 19.3566 105.555 19.9055 106.257 20.6074C106.976 21.2913 107.336 22.1822 107.336 23.2801Z" fill="#3077C6"/>
<path d="M116.392 27.6265C115.357 27.6265 114.392 27.4826 113.497 27.1946C112.62 26.8886 111.847 26.4387 111.181 25.8448C110.531 25.2508 110.014 24.5039 109.628 23.604C109.259 22.7042 109.075 21.6513 109.075 20.4454C109.075 19.2576 109.259 18.2407 109.628 17.3948C110.014 16.5309 110.514 15.829 111.128 15.2891C111.742 14.7312 112.444 14.3262 113.234 14.0742C114.023 13.8043 114.831 13.6693 115.655 13.6693C116.585 13.6693 117.428 13.8133 118.182 14.1012C118.954 14.3892 119.612 14.7852 120.156 15.2891C120.718 15.793 121.148 16.396 121.446 17.0979C121.762 17.7998 121.92 18.5647 121.92 19.3926C121.92 20.0045 121.753 20.4724 121.42 20.7964C121.086 21.1204 120.621 21.3273 120.025 21.4173L113.523 22.4162C113.716 23.0101 114.111 23.4601 114.708 23.766C115.304 24.054 115.989 24.198 116.761 24.198C117.48 24.198 118.156 24.108 118.788 23.928C119.437 23.73 119.963 23.5051 120.367 23.2531C120.648 23.4331 120.885 23.685 121.078 24.009C121.271 24.333 121.367 24.6749 121.367 25.0349C121.367 25.8448 120.999 26.4477 120.262 26.8436C119.7 27.1496 119.068 27.3566 118.367 27.4646C117.665 27.5726 117.007 27.6265 116.392 27.6265ZM115.655 17.0169C115.234 17.0169 114.866 17.0889 114.55 17.2328C114.252 17.3768 114.006 17.5658 113.813 17.7998C113.62 18.0157 113.471 18.2677 113.365 18.5557C113.278 18.8256 113.225 19.1046 113.207 19.3926L117.708 18.6367C117.656 18.2767 117.463 17.9168 117.129 17.5568C116.796 17.1969 116.305 17.0169 115.655 17.0169Z" fill="#3077C6"/>
<defs>
<linearGradient id="paint0_linear_1_107" x1="207.8" y1="8.70967" x2="191.017" y2="25.4921" gradientUnits="userSpaceOnUse">
<stop stop-color="#00A0FF"/>
<stop offset="0.00657445" stop-color="#00A1FF"/>
<stop offset="0.2601" stop-color="#00BEFF"/>
<stop offset="0.5122" stop-color="#00D2FF"/>
<stop offset="0.7604" stop-color="#00DFFF"/>
<stop offset="1" stop-color="#00E3FF"/>
</linearGradient>
<linearGradient id="paint1_linear_1_107" x1="219.834" y1="20.0014" x2="195.638" y2="20.0014" gradientUnits="userSpaceOnUse">
<stop stop-color="#FFE000"/>
<stop offset="0.4087" stop-color="#FFBD00"/>
<stop offset="0.7754" stop-color="#FFA500"/>
<stop offset="1" stop-color="#FF9C00"/>
</linearGradient>
<linearGradient id="paint2_linear_1_107" x1="210.827" y1="22.296" x2="188.069" y2="45.0543" gradientUnits="userSpaceOnUse">
<stop stop-color="#FF3A44"/>
<stop offset="1" stop-color="#C31162"/>
</linearGradient>
<linearGradient id="paint3_linear_1_107" x1="193.297" y1="0.176173" x2="203.46" y2="10.3387" gradientUnits="userSpaceOnUse">
<stop stop-color="#32A071"/>
<stop offset="0.0685" stop-color="#2DA771"/>
<stop offset="0.4762" stop-color="#15CF74"/>
<stop offset="0.8009" stop-color="#06E775"/>
<stop offset="1" stop-color="#00F076"/>
</linearGradient>
</defs>
</svg>
