<svg xmlns="http://www.w3.org/2000/svg">
    <symbol id="support" viewBox="0 0 100 100" >
        <path fill="#3077C6" d="M79.167 58.333V75h-8.334V58.333h8.334Zm-50 0V75H25a4.179 4.179 0 0 1-4.167-4.167v-12.5h8.334ZM50 4.167c-20.708 0-37.5 16.791-37.5 37.5v29.166c0 6.917 5.583 12.5 12.5 12.5h12.5V50H20.833v-8.333C20.833 25.542 33.875 12.5 50 12.5s29.167 13.042 29.167 29.167V50H62.5v33.333h16.667V87.5H50v8.333h25c6.917 0 12.5-5.583 12.5-12.5V41.667c0-20.709-16.792-37.5-37.5-37.5Z"/>
    </symbol>
    <symbol id="communication" viewBox="0 0 100 100" >
        <path fill="#3077C6" d="M62.5 16.667v29.166H21.542l-4.875 4.875V16.667H62.5Zm4.167-8.334H12.5A4.179 4.179 0 0 0 8.333 12.5v58.333L25 54.167h41.667A4.179 4.179 0 0 0 70.833 50V12.5a4.179 4.179 0 0 0-4.166-4.167ZM87.5 25h-8.333v37.5H25v8.333A4.179 4.179 0 0 0 29.167 75H75l16.667 16.667v-62.5A4.179 4.179 0 0 0 87.5 25Z"/>
    </symbol>
    <symbol id="booking" viewBox="0 0 100 100" >
        <path fill="#3077C6" d="M16.667 25h75v-8.333h-75c-4.584 0-8.334 3.75-8.334 8.333v45.833H0v12.5h58.333v-12.5H16.667V25Zm79.166 8.333h-25a4.179 4.179 0 0 0-4.166 4.167v41.667a4.179 4.179 0 0 0 4.166 4.166h25A4.179 4.179 0 0 0 100 79.167V37.5a4.179 4.179 0 0 0-4.167-4.167Zm-4.166 37.5H75V41.667h16.667v29.166Z"/>
    </symbol>
    <symbol id="reviews" viewBox="0 0 100 100" >
        <path fill="#3077C6" d="M87.5 33.333H61.208l3.959-19.041.125-1.334a6.272 6.272 0 0 0-1.834-4.416l-4.416-4.375-27.417 27.458a8.147 8.147 0 0 0-2.458 5.875v41.667c0 4.583 3.75 8.333 8.333 8.333H75a8.277 8.277 0 0 0 7.667-5.083L95.25 53.042A8.232 8.232 0 0 0 95.833 50v-8.333c0-4.584-3.75-8.334-8.333-8.334ZM87.5 50 75 79.167H37.5V37.5l18.083-18.083-4.625 22.25H87.5V50ZM4.167 37.5h16.666v50H4.167v-50Z"/>
    </symbol>
</svg>