<svg xmlns="http://www.w3.org/2000/svg">
    <symbol id="support" viewBox="0 0 100 100" >
        <path fill="#3077C6" d="M79.167 58.333V75h-8.334V58.333h8.334Zm-50 0V75H25a4.179 4.179 0 0 1-4.167-4.167v-12.5h8.334ZM50 4.167c-20.708 0-37.5 16.791-37.5 37.5v29.166c0 6.917 5.583 12.5 12.5 12.5h12.5V50H20.833v-8.333C20.833 25.542 33.875 12.5 50 12.5s29.167 13.042 29.167 29.167V50H62.5v33.333h16.667V87.5H50v8.333h25c6.917 0 12.5-5.583 12.5-12.5V41.667c0-20.709-16.792-37.5-37.5-37.5Z"/>
    </symbol>
    <symbol id="communication" viewBox="0 0 100 100" >
        <path fill="#3077C6" d="M62.5 16.667v29.166H21.542l-4.875 4.875V16.667H62.5Zm4.167-8.334H12.5A4.179 4.179 0 0 0 8.333 12.5v58.333L25 54.167h41.667A4.179 4.179 0 0 0 70.833 50V12.5a4.179 4.179 0 0 0-4.166-4.167ZM87.5 25h-8.333v37.5H25v8.333A4.179 4.179 0 0 0 29.167 75H75l16.667 16.667v-62.5A4.179 4.179 0 0 0 87.5 25Z"/>
    </symbol>
    <symbol id="booking" viewBox="0 0 100 100" >
        <path fill="#3077C6" d="M16.667 25h75v-8.333h-75c-4.584 0-8.334 3.75-8.334 8.333v45.833H0v12.5h58.333v-12.5H16.667V25Zm79.166 8.333h-25a4.179 4.179 0 0 0-4.166 4.167v41.667a4.179 4.179 0 0 0 4.166 4.166h25A4.179 4.179 0 0 0 100 79.167V37.5a4.179 4.179 0 0 0-4.167-4.167Zm-4.166 37.5H75V41.667h16.667v29.166Z"/>
    </symbol>
    <symbol id="reviews" viewBox="0 0 100 100" >
        <path fill="#3077C6" d="M87.5 33.333H61.208l3.959-19.041.125-1.334a6.272 6.272 0 0 0-1.834-4.416l-4.416-4.375-27.417 27.458a8.147 8.147 0 0 0-2.458 5.875v41.667c0 4.583 3.75 8.333 8.333 8.333H75a8.277 8.277 0 0 0 7.667-5.083L95.25 53.042A8.232 8.232 0 0 0 95.833 50v-8.333c0-4.584-3.75-8.334-8.333-8.334ZM87.5 50 75 79.167H37.5V37.5l18.083-18.083-4.625 22.25H87.5V50ZM4.167 37.5h16.666v50H4.167v-50Z"/>
    </symbol>
    <symbol id="logo-vector" viewBox="0 0 98 19" >
        <path fill="#ffffff" d="M.402 5.236a2.781 2.781 0 0 1-.275-.641A2.849 2.849 0 0 1 0 3.74c0-.556.12-.954.36-1.197.254-.242.578-.363.973-.363h9.225c.098.157.19.37.275.641.084.27.127.556.127.855 0 .556-.127.955-.381 1.197-.24.242-.557.363-.952.363H7.278v9.874a5.825 5.825 0 0 1-.74.129 7.45 7.45 0 0 1-.974.064 3.98 3.98 0 0 1-.867-.086 1.407 1.407 0 0 1-.614-.256 1.154 1.154 0 0 1-.38-.535c-.085-.228-.127-.527-.127-.897V5.236H.402ZM15.226 15.174a4.883 4.883 0 0 1-.677.129 6.522 6.522 0 0 1-.931.064c-.31 0-.593-.022-.847-.064a1.408 1.408 0 0 1-.613-.257c-.17-.128-.303-.3-.402-.513-.085-.228-.127-.52-.127-.876V7.245c0-.327.056-.605.17-.833a2.07 2.07 0 0 1 .528-.641c.226-.186.5-.35.825-.492a8.075 8.075 0 0 1 2.264-.663 7.14 7.14 0 0 1 1.227-.106c.677 0 1.213.135 1.608.406.395.256.593.684.593 1.282 0 .2-.029.399-.085.598a2.784 2.784 0 0 1-.212.513 9.948 9.948 0 0 0-1.82.171c-.295.057-.577.121-.845.193a3.238 3.238 0 0 0-.656.213v7.288ZM20.243 1.924c0-.542.176-.998.529-1.368.367-.37.846-.556 1.439-.556.592 0 1.065.185 1.417.556.367.37.55.826.55 1.368 0 .54-.183.997-.55 1.367-.352.37-.825.556-1.417.556-.593 0-1.072-.185-1.44-.556-.352-.37-.528-.826-.528-1.367Zm3.766 13.25c-.155.029-.388.065-.698.107-.296.057-.6.086-.91.086-.31 0-.592-.022-.846-.064a1.408 1.408 0 0 1-.614-.257c-.17-.128-.303-.3-.402-.513-.085-.228-.127-.52-.127-.876V4.958c.155-.028.381-.064.677-.106.31-.057.62-.086.931-.086.31 0 .585.021.825.064.254.043.466.128.635.257.17.128.296.306.38.534.1.214.149.499.149.855v8.698ZM31.017 4.488c.846 0 1.63.114 2.348.342.734.214 1.362.549 1.884 1.005.521.456.93 1.033 1.227 1.73.296.685.444 1.504.444 2.459 0 .912-.127 1.71-.38 2.393a4.794 4.794 0 0 1-1.08 1.732 4.447 4.447 0 0 1-1.693 1.025c-.648.228-1.375.342-2.179.342-.606 0-1.17-.092-1.692-.277v3.547a4.87 4.87 0 0 1-.677.128 5.26 5.26 0 0 1-.953.086c-.31 0-.592-.021-.846-.064a1.41 1.41 0 0 1-.613-.257 1.154 1.154 0 0 1-.381-.534c-.085-.214-.127-.499-.127-.855V7.032c0-.385.077-.699.233-.94.169-.243.395-.464.677-.663.437-.285.98-.513 1.629-.684.649-.171 1.375-.257 2.179-.257Zm.042 8.164c1.453 0 2.18-.876 2.18-2.628 0-.912-.184-1.589-.55-2.03-.353-.442-.868-.663-1.545-.663-.268 0-.508.035-.72.107a2.472 2.472 0 0 0-.55.213v4.702c.17.086.353.157.55.214.198.057.41.085.635.085ZM50.418 15.11a5.827 5.827 0 0 1-.74.129 7.451 7.451 0 0 1-.974.064 3.98 3.98 0 0 1-.867-.086 1.406 1.406 0 0 1-.614-.256 1.154 1.154 0 0 1-.38-.535c-.085-.228-.128-.527-.128-.897v-3.334h-4.062v4.915a5.827 5.827 0 0 1-.74.129 7.452 7.452 0 0 1-.974.064 3.98 3.98 0 0 1-.867-.086 1.406 1.406 0 0 1-.614-.256 1.153 1.153 0 0 1-.38-.535c-.085-.228-.128-.527-.128-.897V2.244c.155-.028.402-.064.74-.107.34-.057.664-.085.974-.085.325 0 .607.028.846.085.254.043.466.128.635.257.17.128.296.306.381.534.085.228.127.527.127.898v3.42h4.062V2.243c.155-.028.402-.064.74-.107.34-.057.664-.085.974-.085.325 0 .607.028.846.085.254.043.466.128.635.257.17.128.296.306.381.534.085.228.127.527.127.898V15.11ZM63.533 10.002c0 .884-.134 1.674-.402 2.373a4.74 4.74 0 0 1-1.142 1.73c-.48.47-1.058.827-1.735 1.07-.677.242-1.432.363-2.264.363-.833 0-1.587-.129-2.264-.385a5.168 5.168 0 0 1-1.756-1.09 5.101 5.101 0 0 1-1.122-1.753c-.268-.684-.402-1.453-.402-2.308 0-.84.134-1.603.402-2.287a4.88 4.88 0 0 1 1.122-1.73 5.006 5.006 0 0 1 1.756-1.112c.677-.257 1.431-.385 2.264-.385.832 0 1.587.136 2.264.406a4.796 4.796 0 0 1 1.735 1.112 4.74 4.74 0 0 1 1.142 1.73c.268.685.402 1.44.402 2.266Zm-7.405 0c0 .87.162 1.54.486 2.01.339.455.805.683 1.397.683s1.044-.235 1.354-.705c.324-.47.487-1.133.487-1.988s-.163-1.51-.487-1.966c-.324-.47-.783-.705-1.375-.705-.593 0-1.051.235-1.376.705-.324.456-.486 1.111-.486 1.966ZM65.288 4.958a4.86 4.86 0 0 1 .656-.128c.31-.043.627-.064.952-.064.31 0 .585.021.825.064.254.043.465.128.635.257.169.128.296.306.38.534.1.214.149.499.149.855v4.595c0 .584.14 1.004.423 1.26.282.243.691.364 1.227.364a2.909 2.909 0 0 0 1.27-.256v-7.48a4.86 4.86 0 0 1 .655-.129 6.97 6.97 0 0 1 .953-.064c.31 0 .585.021.825.064.254.043.465.128.634.257.17.128.297.306.381.534.099.214.148.499.148.855v6.497c0 .712-.296 1.247-.888 1.603-.494.313-1.086.548-1.778.705a9.062 9.062 0 0 1-2.221.257 8.284 8.284 0 0 1-2.116-.257 4.688 4.688 0 0 1-1.65-.79 3.547 3.547 0 0 1-1.08-1.368c-.253-.57-.38-1.254-.38-2.052V4.958ZM86.277 12.097c0 1.083-.402 1.93-1.206 2.543-.804.613-1.989.92-3.554.92a9.953 9.953 0 0 1-1.65-.13 5.12 5.12 0 0 1-1.313-.384 2.568 2.568 0 0 1-.846-.684 1.587 1.587 0 0 1-.296-.962c0-.341.07-.627.212-.854.14-.243.31-.442.507-.599.41.228.875.435 1.397.62.536.17 1.15.256 1.84.256.438 0 .77-.064.995-.192.24-.128.36-.3.36-.513 0-.2-.085-.356-.254-.47-.17-.114-.452-.207-.847-.278l-.634-.128c-1.228-.242-2.144-.62-2.75-1.133-.593-.527-.89-1.275-.89-2.244 0-.527.113-1.004.339-1.432.226-.427.543-.784.952-1.069.41-.285.896-.505 1.46-.662a7.267 7.267 0 0 1 1.904-.235c.522 0 1.009.043 1.46.128.466.071.868.185 1.206.342.339.157.607.363.804.62.198.242.296.534.296.876 0 .328-.063.613-.19.855a1.8 1.8 0 0 1-.444.577 2.274 2.274 0 0 0-.508-.214 5.065 5.065 0 0 0-.74-.213 7.707 7.707 0 0 0-.826-.171 4.728 4.728 0 0 0-.74-.065c-.466 0-.826.057-1.08.171-.253.1-.38.264-.38.492 0 .157.07.285.211.385.141.1.41.192.804.278l.656.15c1.354.313 2.313.747 2.878 1.303.578.541.867 1.247.867 2.116ZM93.557 15.538a7.663 7.663 0 0 1-2.328-.342 5.5 5.5 0 0 1-1.861-1.069c-.522-.47-.938-1.061-1.249-1.774-.296-.712-.444-1.546-.444-2.5 0-.94.148-1.746.444-2.415.31-.684.713-1.24 1.206-1.667a4.56 4.56 0 0 1 1.693-.962 6.061 6.061 0 0 1 1.946-.32c.748 0 1.425.113 2.032.341.62.228 1.15.542 1.586.94.452.4.797.877 1.037 1.432A4.32 4.32 0 0 1 98 9.02c0 .485-.134.855-.402 1.111-.268.257-.642.42-1.121.492l-5.226.79c.155.471.472.827.952 1.07.48.227 1.03.341 1.65.341.578 0 1.121-.07 1.63-.213.521-.157.944-.335 1.269-.535.225.143.416.342.57.599.156.256.234.527.234.812 0 .641-.296 1.118-.889 1.432-.451.242-.96.406-1.523.491-.565.086-1.094.129-1.587.129Zm-.593-8.4c-.338 0-.634.057-.888.171-.24.114-.438.264-.593.45-.155.17-.275.37-.36.598-.07.213-.112.434-.126.662l3.618-.598c-.043-.285-.198-.57-.466-.855-.268-.285-.663-.428-1.185-.428Z"/>
    </symbol>

</svg>