<svg width="86" height="86" viewBox="0 0 86 86" fill="none" xmlns="http://www.w3.org/2000/svg">
<circle cx="43" cy="43" r="43" fill="white"/>
<path d="M46.6518 55.7484C46.6518 53.6923 47.1633 51.7181 48.1248 49.9587C46.7643 49.1915 45.7619 48.6903 45.3425 48.4857C45.2095 48.4243 45.1379 48.2913 45.1379 48.1481V40.0671C46.1506 39.392 46.8257 38.2361 46.8257 36.9268V28.5491C46.8257 24.3858 43.4501 21 39.2766 21H38.3764H37.4763C33.313 21 29.9272 24.3756 29.9272 28.5491V36.9268C29.9272 38.2361 30.6023 39.392 31.615 40.0671V48.1481C31.615 48.2913 31.5331 48.4243 31.4104 48.4857C30.2545 49.0483 24.6592 51.8715 19.473 56.1371C18.5319 56.9043 18 58.0602 18 59.2774V65.016H38.3662H50.9787C50.7025 64.7909 50.4468 64.5454 50.1911 64.2897C47.91 62.0086 46.6518 58.9705 46.6518 55.7484Z" fill="#3077C6"/>
<path d="M58.7324 46.4807C53.6179 46.4807 49.4648 50.6337 49.4648 55.7482C49.4648 60.8628 53.6179 65.0158 58.7324 65.0158C63.847 65.0158 68 60.8628 68 55.7482C68 50.6337 63.8572 46.4807 58.7324 46.4807ZM64.1539 57.0985H60.0827V61.1697H57.3822V57.0985H53.311V54.398H57.3822V50.3268H60.0827V54.398H64.1539V57.0985Z" fill="#3077C6"/>
</svg>
